<mxfile host="Electron" agent="Mozilla/5.0 (Windows NT 10.0; Win64; x64) AppleWebKit/537.36 (KHTML, like Gecko) draw.io/27.0.9 Chrome/134.0.6998.205 Electron/35.4.0 Safari/537.36" version="27.0.9">
  <diagram name="Page-1" id="mAolQ103b63COA05FK-G">
    <mxGraphModel dx="1426" dy="849" grid="1" gridSize="10" guides="1" tooltips="1" connect="1" arrows="1" fold="1" page="1" pageScale="1" pageWidth="1100" pageHeight="850" math="0" shadow="0">
      <root>
        <mxCell id="0" />
        <mxCell id="1" parent="0" />
        <mxCell id="0hu4hQmYEvxT2WlQdL5b-1" value="" style="shape=image;verticalLabelPosition=bottom;labelBackgroundColor=default;verticalAlign=top;aspect=fixed;imageAspect=0;image=data:image/png,iVBORw0KGgoAAAANSUhEUgAAAdgAAAGZCAYAAAAq3SBQAAAAAXNSR0IArs4c6QAAAARnQU1BAACxjwv8YQUAAAAJcEhZcwAADsMAAA7DAcdvqGQAAEs/SURBVHhe7d0LfBvVmTf+n69xbk5CuCUEAnHqAIKlLq0htBRo7Tal7sV/l2239IIXWlO8jQlLyavtnXbrNywlOK2hKbDu9qVsL/jj3a6XurW33FqSuhAvBEEi4pCQGyTk5iROYsf2/5wzZ6TReHSxLNkz0u8bBs2Mjkbj0WgePWdmzskZGdg+AiIiIkqpXP1IREREKcQAS0RElAYMsERERGnAAEtERJQGDLBERERpwABLRESUBgywREREacAAS0RElAZxA+z8hVfqsdhYzhnLOWM5ZyznjOWcsZwzt5RjS05ERERpwCpiIiKiNGCAJSIiSgMGWCIiojRggCUiIkoDBlgiIqI0YIAlIiJKAwZYIiKiNGCAJSIiSoO4AdZrLWdEw3LOWM4ZyzljOWcs5yzby7ElJyIiojRgFTEREVEaMMASERGlAQMsERFRGjDAEhERpQEDLBERURowwBIREaUBAywREVEaMMASERGlQdwA67WWM6JhOWcs54zlnLGcM5Zzlu3l2JITERFRGrCKmIiIKA0YYImIiNLAs1XEO3ftE8NenDg5oOcQUbKKphRiwTlniuEMPYeIxstzAfbI0X78Z/uf0Lt1l55DRKlSsugcfKLqfZg5Y5qeQ0TJ8lSAlcH1Jw//J/r7T+g5RJRq06YV4dZbPsEgSzROngqwj/7yD6HMVX75L1yyUBwMpqhpIkpef/9JbNq8Xf2IlWQm+7nPfEiNE1FyPBNg5TnXR/6tXY3L4Hrbl6tRVFSopolo/E6cGMADP20LBdmbv1jFc7JE4+CZALu+O4Dfd3Wr8fdcfhGu/3BiN/6avvu9/9VjRNnj2998px5LzBO/X4+/vvCqGv9wRTmuLPepcSIaO8+05GS9WthaLZzI8mRw/cGq/8ZIAv/uXf2QZSr6P5Zz/sdyzv8mo9xTz+zBzNPq9bcgNvN7ZP1uOV2hn+7veTQs54zlnLmlnGcy2Kee7cHTzxpZ6DVXvxPXXl2mxhMhA6w84Hznm4m/hsjrktnvx/M9I6JIbGiCiIgoDRhgiYiI0oABloiIKA0YYImIiNKAAZaIiCgNGGCJiIjSgAGWiIgoDRhgiYiI0iBugPVayxnR/HD1w3ostkz5e1nOWbaV437vjOWcsZyzZMuxJSeiDMWWnIgmF6uIiYiI0oABloiIKA0YYImIiNKAAZaIiCgNGGCJiIjSgAGWiIgoDRhgiYiI0oABloiIKA3iBlivtZwRDVu0ccZyzjKlHPd7ZyznjOWcJVuOLTkRZSi25EQ0uVhFTERElAYMsJQWv7ttIXIKjeGqNdv0XCKi7MEASym3ZU01rn/4s3hiYDtGxPDc8vP1M0RE2YMBllJsG9of3wDc8iF8RM8hIspGDLCUYq/j1fXA0gsv0NNERNmJAZZSaBvuf/9N+KkYW3fnNcY52Pc/gi3Gk0REWYUBllLofNz+zM/wZTG29N6n1fnXkWduxmLjSSKirMIAmwTz6lgiIqJo4gZYr7WcEU2qW7RJlNu3S+rL3aHHYsucv9fd5diSkzOWc8ZyzpItx5ackmBmr7IKlOyeRF3hTdh479O8PWeSsSUnosnFKmKaQPIiqHADFLwAiogyGQMsTZjf3XYNVlzyM+PiJ14ARUQZjgGWJsiT+A/ZutMD1+lpIqLM5t0Au+Fl4OHHjOHFgJ5JrrVlKzbqUXIRfo+I0saTAXbhY48DP35EHBzEIVsO9z8M3PsT/SxNruuwlu0Pe8P//fGo79F5v2rTTxLReHkuwF797LOYsvdt4F9XAw80GkOLGN+6nUHWzRZ/EH975WO4/rYn9QyaVDK47twz6ntUtGsP3vvnP+tCRDQengqw8/bswelvv43g7bfqORbyALHxVeAlMZALyVaensbql28KX0XMYDs5ekS2urlXZK//rGeEBe+4DWe9+aYaiGh8PHUf7NH7H8G83btx5J5vqvvzcgpb9LOGn+K/8FfMx0O4XM+JNDJQq8fGh/fBOnv6mfUYEXvTtdckdlM2pZf9+2H6Ml4Q35DdqMPH9ByD/H7I71nxXd/DrvnzMfP2m3kfLNE4xM1g3d5yhlWOuq0+R08lJ5n3jcXt2y+V5Z56ej0+Vn2znootE/5eye3lkiJ/JeU4f48yZbuwnDOWc5ZsOU9lsJt/04Gl69bhwH3fdf5l/YXlwNduAy69UM8wsCWnifHd792vt/MKPYcmU9T9/n8DQNPDxrULNvJ7Nvf2b+JP73sfLvrUh5nBEo2Dp87Bvnn22dh75pkove8BPcei7i6g7NJRwZWIbN7pA3xLgNv+j54RtuSHzdgzbx72nnWWnkNEyfJkW8Sf3/06Fh05DEybalRn9Z8QwfUSYMWX1PN2zGApG8Xd7+VV9/LCQMv3qHf2HDx6trF/sy1iovHx5H2wb3y6GrjzVuDdlwHl4gDwta9EDa5EFIX8Dtm+Rztu+IR+kojGy5MBVrn0IuDmvwP+/jOsFnYJeQ72O98bfV6PXIzfI6K08W6AJSIicjEGWCIiojRggCUiIkoDBlhKmW9/83beA0tEpMUNsF5rOSOaH65+WI/FlujyEuX27cJyzjKlXKr3e5ZzxnLOsr2cJ++DHev9ebwPdmKwJSd3SWa/H8/3jIgisYqYiIgoDRhgiYiI0oABloiIKA0YYClleBUxEVEYAywREVEaMMBSyrAtYiKiMAZYIiKiNOB9sEkw74PNlvON27bvxDsvuxgNX/17PccZ74N1F94HSzS54mawXms5I5p0tOQkD17x/t27+iHLVPR/bi63cOE5+Me7vo9XXn1N/+XRseUgZ5NVjp+HM5ZzxnLOki3HDDYJ2diSkwyuN3zmKwi82KXnkNsxgyWaXDwHSwm5+KJ34IZPfVRVAxMRUXwMsJQweW7114+3R60q5lXERERhDLA0Jr/55YOqqpiIiGJjgKUxYVUxEVFiGGBpzOJVFRMREQMsJcmpqphtERMRhTHAUlJYVUxEFBsDLCXNXlXMq4iJiMLiBlivtZwRTTpackqE27fLeMvZq4rZcpCzySrHz8MZyzljOWfJlmNLTknIxpacYpFZa474Jxnbmedh3YAtORFNLlYR07iZVcX73t6v5xAREQMspYSsKn7yqXXMXomINAZYSgleVUxEFIkBllJGnodtfvDf2AAFEZHAAEspdcOnqthWMRGRwABLKXXGGaexqpiISGCApZSzN0BBRJSNGGApZaxtEbNbOyLKdnEDrNdazoiGLTk5S1e5eFcVe+XviMft5diSkzOWc8ZyzpItx5acksCWnJzJYGpvycl3WYXKZmXApYnFlpyIJheriCmtWFVMRNmKAZbSig1QEFG2YoCltONVxUSUjRhgKWWsVxHbsaqYiLINAyxNCFYVE1G2YYCllJHBU/YNGw2riokomzDA0oRiVTERZQsGWJpQrComomwRN8B6reWMaNiSk7NUl0tkO8uq4u83/iihquJM2S6TVY4tOTljOWcs5yzZcmzJKQlsyWn8ZHCVVcWBF7v0HEo1tuRENLlYRUyTglXFRJTpGGApZeJdRWzHq4qJKJMxwNKk4lXFRJSpGGBpUrGqmIgyFQMsTTpWFRNRJmKApZSJ1RZxPKwqJqJMwwBLrsCqYiLKNAywlDJjvYrYjlXFRJRJ4gZYr7WcEQ1bcnKW6nLj3c72qmK3/71uL8eWnJyxnDOWc5ZsObbklAS25ORMZrDGdk7uPKxJZsE54p88p0vJY0tORJOLATYJDLDOUhVgJd9lFSqbledms90LL+3TY0Q02S7/mzP0WHwMsElggE0/tlUcJgNsaWmpniKiyRIMBscUYHmRE7kSryomIq9jBpsEZrDOUllFbGJVcWQG2/JqgXpMp5GR8CEhJydHjxFlpy8uOYncXCMXZQZLGYUNUBCRVzHAkquxqpiI3OTIkWM4fvwEBgdPYXh4OKLGx44BllyPDVAQkVvsefMt7D9wUAXZoaFhPdcZAyylzHjaIo6HVcVE5AZbtmzHzp1vou/IEZHFDo4vg/VayxnRsCUnZ14pF6+q2Ct/RzyJliOiybHnzb04cOAQ+vuPj8pg7d9fXkWcBF5F7CwdVxHbZeNVxbyKmGjy2K8i/vMz7ViwYB4uXFKCBefMw/TpU5GXl6eet2MVMXkKq4o9YMePsPqWH4HtT1EmMi9silU1bGKAJU/hVcWTSAbOK6aiIWK4Fk/t0M/bWQNttKA7apn/gFf0UxMmkfUkSgIDLHkOryqeRJfeg2/85TiaQsNTuPZc/ZzduV/Fioe/iri35VuXuRpYO5kBLtF1JkoAAyylTDqvIrZjVbHLWDPRT92FbeY8FSx78dR3xbyNd+H74vnV/96rXuLoqo/hqo2bsU+/9qlGS1ZrfQ/rvFv+Ab+6xZw/Fb96Tj6hnwuV15n2qOXa1u3B74QzWKfXC/v+/Vo9TwyT+WOAXI8BljyJVcWTRAeiyADze/xKBNX5q3UW+vg9OF8XN5Tg2m+LeTpTXfF3JXr+aPv+vRHPXbrEyCDFe711jVzmj3Gx7T2+cfvLWNv4e/UabHwZZ31bv/fqm/HcChk4ZfnN+LCcp9apBj3f1cEwYrm2dauaqxaJaK8XQffR+y9BnZ5fVyJ+DOhXENkxwFLKyGAn+3KdKKwqngT2KmJZnbojiN1i/geu0mXGyhK0v/8/NfiGWUVrXabtPc54Xw3O/4//MrLYS2vgM6upZQaMl7G3W5THI1hr/hCQWbXMjGWZRNZVvp/T688txXw138igL/bLIE3kjAGWPI1VxRnAGrRTef7Tulw1jDEYOr7+w/i0Gv8YNqrgq6uqiRwwwI6DvB+WQ3iQ2avMYp2eS9cg74uVGazTc9EGSjGZ1W1sRcA8R/mnVuMcrJ2ZQSZDvcdd+KM+v6re45MfGx0wn/svPCcz2vLI8nHZ1832fiE7foRfqXPIMtC+jOpLRbYc7SpqynpxA6zbW7RJtNxkteRE3uT2/XnSWKpzjUFe/COCzepL0PYpY96j2y6xnYMVzv0qPvxJo8o15kVOUYn3ePwe7F5hvMf35XlQ/4eNp6zrtAKoU1lwZHk1RLsgybpu7fv1zCivF4EX4r2NeZeg54OPRL+KmrKO/fvLlpyIXI4tOcUgr/T9LvA53lpDaWJvyenZp36Lc8+dr1pyOnfBfLbkRERENNEYYInIu9gwBLkYAywREVEaMMASERGlAQMsERFRGvAqYiKXs15FPBFkd1wm8+pJomwlvw+8ipiIiMhFGGCJiIjSIG6AdXuLNomWS3VLTiznjOWcpbocEbmP/fvLc7BELsdzsESTh+dgiYiIXIYBloiIKA0YYImIyH16m1FR0Yxk+l5yCwZYIkqMPOAVF6O4oVPPMHQ2iHnpPhB2NqBYvrc52NbBMxyDRi+aKyx/m2WoaB7DVnVzQIr2+aVine3L0O/lhl2EAZaIEldei9rAKoSO++LgtipQjnI9mQ69zRUorgFa+/rQp4dWtMOjIdZBCeq79N/W04jy8kb06L+zq75El/GulH9+sYKyfK4mgMaePjRV6nmTiAGWiMagFFXVQFuHcXjrXOOHr1rMMMkDXChTaTAOomqeHlc60RDxnFm+Ihy4Q3rR0QZxwGyC9XhZ2aSno71fRQMadFbY0BnOEFVWY3s+NF+KurxmNMtMPWZ5vf5Ry4v1qPOju9uPMjEvbnbqtGy17SyvVWXkc2Nc9oSJ9fnZ1vnuuy3bzbq/JEhui7I2VPd0wS2/SxhgiWhMFtWvhM+/Bp3igLYq0Ijly/QT8uBfJgJuq5Gl9DQGUCMjS0k9Vta2oN08Yna2o6W2ShxgZfkgVpqZTU812upsmUlvB9q6fSh1PGBGeT+pO4DStWJ+ay1aauoAc3yVXr75vHxfVUYe0GMtz49glaW8Wk6M9XcsLzLVteEMNXZ2Gm3ZlWgSWS7k9hdTzXVmQBnLsidQzM/Pts43zrVst8iAHF8b6lwWXKWsuQ/2qaf34Npr5uk5RN5R9Ylz3HEfrMwQZKzqqsdWkWXUtAC1Ihg1LdLz1wJ1+nl1jFMZhQwS4mApz4u1V6GvSYTVhgoEl4sDIeTzIoNRCzfVotV6cLW856jjpv058/16SrHKnG8tY47b11MGs+JVKP1PEcT+Oc7yzPnmcpzWP1p56zqE3tsm3rL1tpHVrmX+bpQ39oSDabxlT4ZE/16nbRMxLT+jGohdbpTyO+8E7n0G1Y0++NtK0ZPivz+t98G6pUWboimFegzo7z+pxxJb3re/+U48v6FdNTYR79+9qx+yTEX/x3LO/1jO+d94yrlR5XKReYgDflWiaUblcjQG5Hm3TrQHqrHMPAJazjcagy1zKSmFr7sNukbafeKt/3jEWHZJqU+PuVzKPj+RuZvbwX6eWma+5WKfqm9CT3UbykL19xPPHo88k8Hu3LUPj/xbuxqfOWMabvtyNYqKwkGXKFO5piWnaNlIaH4p1hhXs6gLTFSWFVypslajWAXWBH0IlC7XWZeRlZjlozGyNV9EZtvZ0AA0VaHd6f2WB52zInPcnsHK7HqVzHyirL91ebJ8lL83xL6d7OtgZvWqsE28ZStyu7Wjqk/+/SLzNqtF4y17kkT//MS0dZ2t20kWsk+bYpaT59vL0FZtyezHaTwZrGcCrPToL/+A3q271LgMshcuWYhp06aoaaJMNXPWAo8EWDFfjoeqNh2qe+0BIKK8IDMT+/IF4yBtqTCtbTUCt9P72dfHPj6q+tWynvGWZ5Zx/HsFuf72AG57vbytSVavR1TvmuIt2x545Y8DNWmsf8xlT6Kon58QWmdZ1fvM3KjbLcQ+f1Q544dbIEXbIGsC7JGj/fjJw/+J/v4Teg5R5quqqmJbxKkU7cBN5GA8AdZT3x6Ztd56yydQsugcPYeIiMidPJXBWslzsjt37cWJkwN6DlFmck0VMVEWypoqYqJsxO7qiCZP1lQRExEReUXWBdgta6qRU7jQNvjxO/Xsk6gT01et2aamItmfM6ZHL2sh6jp0kQjbcP/7oy2biIgyTVYF2N/dthDvuBNY/cp2jAyYw9NYfeUmbN6iC43R0nuftixrO16791346cercb99eR1rsWK9HicioowXN8Cmu4WmaFJe7pxL8b2HZUBcjdsX65nK+bj9mbbQvEeNh7jmL7xDj0VafH0VlmIDfv2EkanK971KZrYff0xNR5Mx25nlHKW6HBG5j/37GzfA7t6eWNrl+nKPVGGdeLy09HxjRhSf04/x7N5+nx5zZr7P7l0b8ZzKbn+GL6s5zjJmO7Oco1SXIyL3sX9/s6eKePFikVkCP/3tk8Z0mvzuvrtFIP8sPhnqYYSIiLJRFgXYm/Hze98FPHyTcTHSbakJtOvuvCbiAqfrH34XVr/SiI/o54mIKDtl1UVOi5e3hS9GunCNJTCaVxGPnf0ipydu2YAVF0e7kpiIiLJFVgVYq1Cw/e1nxdRj+F6Kbp/5yAPGudZ0V0UTEZG7ZW2ADVn2IRUQ12163ZgWrONElIFkg/8VzXBrN7MkZMBnxAC7ZSs2ioelF14g/n8dPnmLeHh5K0bdFtvxB/xUPMS7CjlyeUQZRh70iotRrIeK5jiHvzQeJGUXaOZ6RF0XBlJ3kN3qWT6rYrNT9FR8Pk7LcMnnnj0BtsPvcK51G+7/e+Oq328uNwLnR+74FpauvxtfiKgyfhJ18j7WK7+Fr8W8Onj08ogyRycaytpQ3dOHvj45tMIX3Kqfm1iqf9G2avSo9ZBDD6qDHaMPqCX16GK3dJNK/RBSfdaan1UfWtEu9qYkeehHU/YE2GV1WH3lY7jecsVvTuE1WIFv4bUBy1W/i2/GcwM/w6URVwffhJ/e8jOMPHMzItqoECKvInZY3pZHjIYm5DLEpFmeTSaSN/lQGopWlWjSnWarg14oQ6mAkUz2ornOj+5uP8rE/FEZZsRrGowDrj54NjeY84thJjthnVjjBxrXWgNnCeqbxHTE68UyrQdj6/tFdLhO6dOLjjbxWfVYOtkXKpvktG3/uPvuyM9Ol/WyuAHW7S3aJF7uM7j9mfDVvqHBFjSN5V2HtfZyD1xnFNDmL/SPLiMH+/I++JBuaCJyeM6W4bp/+7Gck8kqNzkqUVXbghoZoCKinsxsg1hpZig91Wirk0FNBL21jSgvb1SZZle9NY+Ur/HD12q8pqcxgBpzmeKAG6zSy2qtRcsqe/VfEIHyaiyLlpaGXm89qEe+X1+PWC/9DKVRbwfauq0/yqxs+8eNc6N8dt5h//7GDbBub9GG5ZyxnLNMKTdZKpt0gKpqNzJBGRRlwIMOvGZ22B1EzMpjFSQbsVwfRUuWVaO8RVcbWuZjUWmcQCiyoAr9vmaman29yfZ+NIHKS7FIj8YV9TMSP5Ai9i8j65XTFb/Yr8tMPvv3lxc5EdHYVTaJQNuKWktQDJ8PTXMGUlIKX3cbOlQ0FVlQl3g/ZqTuFPFZjUclmsx9S37Wlv1NZb4uxQBLRImR5zCtVcMqKxTZiTqI+rHG8lQEp2zW9prejjZ011YlGJQrsbwR8Ktq6ATZDvTq/YxRSiv9WZVFnlPtbLBMx6vtiMchiKvP11dqOUc/ORhgiSgxJctQHagxqulUVV0bqtWFRiK7EFlFoEbPl4NZXVtSj5X6vG3kRU6Rrynz+9BqXjCVgJL6LvRUt4WqCWW1IaqXxTigivdr9YkDvVG+LuhjxjtB1Gclz7Gbn5UYaqB/TFn3j6SreuW+VI02/dnKQV1hPob9KV1yRga2j+hxspB9x17/sDEum0OMvChJdrZ+EzaOmu9WXltfsnrhpX0oLS3VU+k3PDysx8Qv8Fz+BqfsJr8P5vcgGAzi2ad+i3PPnY8Ll5Tg3AXzMX36VOTl5ann7bLo2yODjHk7jXUY3Q7xljXVIrh+Fk+Ervh93Xht1A4CjGVP/q0323D/+3kLEBGRG2Tdz9PIxvmf1vfGWoPsNrQ/vgG45UPe6xGnYy1WuPsiVCKirJHl9T/n4/Z//RaWRjT2/zpeFUEqsqlDfV+s7V5Y1zAbs5CtTRERkSvwBEsEWcUa2eJSzvsfwZaYVcDG+c2I11gyYlnd7FwdHV5muMzo6uqEqNanZEZu9OSTiNB7pqhfXCIiihQ3wLq9RZvEy92hx2y2bME68WA04n8+7tl+mgpSoapkh+YRpUf1o5HdGoEtXP1sNJUog9g77nwZq1+R82RfsY/hehWww2RQ/gJWY968eaHXxZKS7dLhF+u1AV/+7XbM+2+/nhnb5H1uLEdE3mD//sYNsG5v0SbxcvfpMSuRRcpq1Vt+hrW6EX/ncqN9Tj9G9yT+RQSxpfd24nYdoc2OBP7F0hm7eYWy9e+IzHojhz179ojHatw/qrufSFG3i+z0QPzNMrjKv3nyPg+Wc5JoOSJyH/v3N+uqiCMb51+Di2R2mY5zq7rbuoju7RYvwqV6NJZQZ/BRh7ZQ0B6TTWtx1cc3qYza/EFBRETpkXUBNlSN+4q8uGkDVtyXpnOQuur5px+3ZqDGudqNwcm5jWbdw4+JddqAXz/B23iIiNItey9ykhcG/fazwMM3pee+0cWLRQCHqoq1Z6DxGnuIVUVsDPGriJ2oHxfihwVEFl9nqaYmIqLUy94AKy1rxBO3GNXGKQ84ujo4mWw1bVXEkvhh8fN73yUy6+SCNLnLyAgwNDSEYTki5eQgJzcXuXl5qnUZc5At0BDRxMruACt85AHZ2ISsyk3yFhnlOnxSBurH/8dyhfB1+JoIZOvuXBERyLas8U96YJMB/IlbNmDFxeP5m8kNhkeGVXAdGTYeVcR1kJ+fr8eIaKJkfYC1NjZxfZJVr9JHHvgZvrz+brxDVeEagUsGstfuhQhk4erddzy+GFXJZp/RmA1N2O7HjVX1rdZ3nH8zTT7ZRqoarBmrmFaDHBeBVQ6yjPl8QUGBfjURpRMb+ydyuZiN/efkqKw1FGjFkCOrieV89bTxuGnTJixatEiVzxXD4OCgmu+Ejf2TK8juEeuAtV2yx6bJw8b+ibKUNbDKLNYcl4HVfDQHM4ONdjBIWGdDqFswNVj7iCVyEm2fkUHU7NpwvFy4X8YNsG5v0YblnLGcs0wpZ5LZaCi4WoKpPbjKQQVXHYCT1dtcgeIaoLWvD316aEV7RGfaRFYp32ccgrJb9kv795dVxEQuF6uKWJ5PjRZQJfPxlVdewZIlS9S4nHfs2DE17iR6FXEvmo06O9Q71dnJA1+ZH91qolYc7JpQqar5gvChBS3GE6ht7UNTpVxWGYIr5bic24mG4lUo7YmybPKoWPuMsQ/49X5RfuedwDNzUe3zw98i9p+eUqxyqiIeVXUcZ78cJ1YRE2Upa0C1D/L2nePHj6thZGQkND9pvR1o6/ah1PEgJgKkCK4+ETxl9tDTGECNWUXXHUDpWp1ZtNaipaZBlC5B/Uox3q7LdLajpXYlg2umibnPiH1gbSPKyxvRI/aNrhvnin3Fj2CV3FfEjzNdKq6Y7zG5si7A/u628BW97uyY3C2dt5MXWIOmOS6HEydOqHard+7cib379uEtMcj5ZqabtPJSLNKjEXqDCIgD5XJ9VCxZVo3yFl1FV16NZebBr7JK5LYBBGX9nhzXZTrbW1BblfAhlbwk2j7jxLIPRZI1HPrcqqwlEYG4TE9X/GL/2N5jAmVVgJUtJF3/8GfxhG6wIV6LSuklu8ZjIKXxMYOlNWjKzPXtt9/GW2+9hQsuOB/tHb/DNVdfjVOnTqG/vx+nxPNJKSmFr7sNHSm5IkWqRFVtC9o7O9HeUgvG1wyUsn2mEk363GpfTzjrldNd31qa4v0ydbIowG5D++MbgFs+FLdLuAnRsRYr2HEKpYA9I5XnjGQgnTFjJu5Z3YSv3PIlHDx4ENu3b1dZ7ebXkj0SVWJ5I+Avk1W8YZ0NYlodSP1Yo5/o7WhDd23V6Go+WRVsyWgrxQIDNTUINC5PvEqQPCTGPqPH0R3EVj2anATeY5JkUYB9Ha+KgLb0wgv09CQxG4WQ3eQRjZNTBpuTk4u8win447NP45++dqcKtps3b0ZJSQn6jx/H0OBJXXLsSuq7jPOrZnWdGGogA6nIMERmEagx5pX5fWg1rl5S59XM6jx1paf1opWSZaguL0d1qA6ZMk30fUY9iZW1Leo5VdWbpJjvMYmy5CpiWR17TWTGeOW38FqUztSdGJ2niwzYdMvPxtnNnTzXehM26v5gw0bPD733uN+TvChmQxMWhYWFEVcTm+P79u1DT08P5p5+Ok6dGsLFF12oX+EspQ1NjLri00beu7iqFD2T3JgAUTS8ijiu83H7M7JpQEt3dWMOrlD9qKrXDohlvbzV0u5wGnX4VXBVvfIwuFIcZnCVgym/oADHTg5iatHUuMF1oqmLm1YyuFJmyqIq4mQ9iX8RAW7pvastPdhch7U6QKerazlFBFdZlSyDKztIp3gGBgbULTmySlje53r06FEcOXIE+eLXdcW17xe/uhfokhOopB5dMbLTyibzPliizBM3wLq9RZvEy92hx2IbtbwtW7FRPFxaGnnFsVkuXtdy8+btSahruVHvu2ktrvr4JpU1W4Nr6rcLyzlxezkich/79zdugN29PbFLXd1f7j49Ftuo5W3ZgnV61Crdf8e6hx8T77sBv34i8jaedL9vNCznbLLKEZH72L+/rCKOZ/FiLNWjTtJVRazOFb/yLSAdncETEVHaMcDGs3gRLhUPG4PODULEqyIeGWhLqIrY0eKb8fN734Wffpx9thIReQ0DbFzX4WsiyK27c4UlyD2Juvc/MiFXEcsA/sQtG7DiYqMTdyIi8gYG2ATIIPfavRBBzqz2vQk/vWRRwrf5RDAbmpDLEJPr7rxGLTNWk4kfeUDeYvQYrh/PFclERDSh2F0dkcsl2tCE7DFHDvKmeOvN8WOV0oYmiDxuPA1NZG+AlZnkxXc7XiEc9i6sfmUc51CJUiBagJX3vX7nO99R975ecsklWLTI6E9k2rRpqu1h+bhu3TrV/vB5552HO+5I7FY1BliiMLbklIzFN+M5x4uSrAODK7nXiy++qBqU+MxnPoOzzz4b27ZtU4PsXF0G1d7eXlxxxRW44YYbsH49b/8hmmj8eUrkUbL7uQULFuDyyy9XgbSoqAhTp05Vg8xe5XDllVfi6quvjshKiWhixA2wbm/RhuWcsZyzTClnMtsdnjNnDj796U+rQWa0xvB3IthOk4VUkLW2UywHIleTHUVUNMOF3bxGZf/+xg2wbm/RhuWcsZyzTClnZw+efUeO4OChQ+pRtklcd+utODkwoIaBwUHs2rVLv3IM5AHP0h1YcXGS/W168MBJ4yR7TbLuOw16z0nFvjBqGb1orqhA8yTsYPbvL6uIiTzMHljNITcnFwUF+XooQEF+PvLFYD4mffFSeSN6+vrQJ4dWoIaBkuLoba4w+gE29xsxtKI9+c7Q7QFV9imMNnSYM3o7xFS4U//JxABL5FHylhzJKcDm6UCqhry88LgOtrLMuFVWobY7iK1iVB1EQxlKOHuImK8OiiK7qPOjW3fCXiELRmTGk5N5ULr0oqMNaOxpiuj8vLJJTtv2hbvvVoGzuUHuB2OpHSnBsmqgzYywW4NA9TJXdIHIAEvkUfIiJ8keXGV2mp8vgqoMrGIIBVsxPu4M1qK3eRVaykshbw4qqe8KZSd9rT7414jDowicdX5fKHNp9clgXIL6tY0o15lwV/1WNJQFsdJ8bY/IReqYFWcMmU12+1DqGO1s+8KNcwERbINVcl+IDMjxlJT60B2UP/WMPoZ9zm844RhgiTxK3gfrlMXK4KkGGVzNIKsH8zlZLik625DZZllbNXrMvl6tWWhNCxAIorekFD60oEZnI0bWYtMbRECV0a8tkxmNkRVThtA/whIigu1yx8jaiYaIfSS8H6paEFmb0iKrnXsRDNSiyiV9DDPAEnnUiZMn1aMZLCOCqxjy5GAJqnIwywwle9uO9RysNbiWtaG6x8xCRVaiCleiSZWtQrs6GEap9rMuUw1jy17IxeSPrG7L+dGkmfuSGOT+ZdlnuurlXliJqtoAgp0iY/ZVuWb/YYAl8qiTOsBayQBqD7TmPHO+zHpPnjihX5Ei5eGLSno72tCtRprRoE6oyoNjDxrLxQHQPNCaWao6APsha5QpE1VieSPgL4v8cdXZYJlOUY1FZZUP/ho/fG5JXwUGWCKPkkHSbEBCBk8rM5hag6sse/hwH3bt2qmaV0yZknqs9IWr7OqCPiODFcFTHFmNar3iMrRVr4VKNmT5WqNauKJ5EZpERhKoMV6rBl6ZnFHk+fmexkD4NIAYaqCzTOu+8Iv9qnzSZDWx+Oei+MrG/oncLlpbxI888gg2bdqEr3/966Egamat8iCmzsHqaTnI+2EHBwfw9DPP4IMf+KBeymhsi5goLK1tEbu9RRuWc8ZyzjKlnHTVVVdh48aN+PKXv4wVK1bga1/7GlauXIm77rpLPW+/jGn/gf146aWXYgZXIkqe/fvLDJbI5RLtrs5K3opz6NAhPWX8CpdtFRcWFuo50TGDJQpLawZLRN4j75GdMWNGaJBVxokEVyJKHQZYIiKiNGCAJSIiSgMGWCIiojRggCUiIkoDBlgiIqI0YIAlIiJKAwZYIiKiNIgbYN3eog3LOWM5Z5lSzq7v+efx7KWXYn9Xl54Ttr+zUz0nyxBR+ti/v2zJicjl4rXkdEgEzsCtt+I9n/88Xnn6aZzzla/gjEqjxfN9f/gDdqxejUs++lG82N6Od3z/+5j97ner56JhS05EYWzJiSiL/eULX8BCETQH9u7F4ndfjp0P/QivPv44Xv7Vr/BG8314x5VXYGDPHlz88Y/iL1/8gn7VBJF9xbJ3HBqLDNpnGGCJPO6yNWvwYlcX3n5zFw5sfR1nnnM+1j3yIF742U9w5sISHNyxEwcPH0SgswOXNa3Rr0qCPPDp7sbMoSEV/bgyCGeudO0zHsEAS+RxZ1dUoOzBB/Hahr+g/+030bfldVw15wxcOfsMHN+zFyMzp+K1nm6cW79ClR2X8kb09PWhTw66H9dsOmBSErJ4n2GAJcoA8ysrcdGqJry+dTMGjx3GyTf34sTBPhx660387+9+iyXfacS88QZXu5J6dMkD5iqdfUZkKxVotqekjs/3ornOj+5uo8P2Cjkz3nLIu8a6z3gcAyxRhpCXJg2cOoXBTa9i8PnnMfjccyjYIY5YObkYGknTtYwlpfB1B7EVnWgoC2JlKFOpRludtdo32vMlqF/biHKd5XTVb42zHPK8hPcZ72OAJcoA2zs78ULDrfAdPoY5R09iSvFUFM0swqz9R+Hr68cLt39FlUmb3iACaEGNmY2UyaxUHkS1eM+bEi1H3pcFnzUDLJHHbROB809/93e4+shxnHHkBGbMmoH7pk3DvTNnYkbxDDHvON4vhp47lmObw32y4yIPkuWlWCTHrefa1NAE42YhLd7zpkTLkTeNZZ/xOAZYIo/7n4YGfGRgAGf1HcO02cW4Z8ZMfOV7/xc3f/07uE9kBtNmFePMw0dx3eAQnrrjDv2qVJBVfH74VtajRFX7+bEmWpIc73kzc4lXjjxuDPtMBogbYN3eog3LOWM5Z5lSzuqjP/85/nvGDBw4Zx4eFAH1U9/6Dso//Wlc/fnPY9lKPx6aPQv758xGZ2Ehlv3rv+pXJUlfjGRclLIKpT19aFIpRyWa9BWixnNiiLj1JsbzJfVYWWtUFVY0L4qzHPKcpPcZ77F/f9mSE5HLxWvJSXrz+efRcfPN8H3jG3jPDTfouYbuX/8aGxt/gI8+9DDOjtOKk8SWnIjCxtOSEwMskcslEmBTiQGWKIxNJRIREbkMAywREVEaMMASERGlAQMsERFRGjDAEhERpQEDLBERURowwBIREaVB3ADr9hZtWM4ZyznLlHJE5D727y8bmiByuclsaGLPnj16jCg7zZs3jy05EWUqtuRENHnYkhMREZHLMMASERGlAQMsERFRGjDAEhERpQEDLBERURowwBIREaUBAyyRh+Vu2YL89vbQkHPsmBqmfeITKKqvR+5rr6ly1jK5L76o5hFResUNsG5v0YblnLGcs0wpZ5p6443Ie/pp5O7YoQYMDqrh6A2fwcC5F2DkrLOAoaHQ83kvvICpdXXIefttvQQiShX795cNTRC5XKyGJqZ9/OMY/OQnMXzJJRgqL9dzxWveyMHRg8dxzWVFeo74Nf3668j/zW+Qt2kTTjQ2GsHXARuaIApjQxNEWWzwi19E3oYNoarfvUdysHkv8NqxqXjjYI6al7NnDwoefRQDd92lpoko/RhgiTLAwK23Iv/JJ5ErfmE/9nwOzioGLjobeLQ7B0P7D6LwRz/CyW9+U5emUXqbUVHRjF49SS6QAZ8JAyxRhhi4/Xbkt7aiaLAf5QtH8N5FI5iaP4IpjY04+YMf6FLjIA94xcUotgwNnfq5VLEeVMdzgB3ja3s72oDqZSgxptBcIf6+RF4/SevrOZ0NEftNsbnjpOLvlsuwLlsMKd8vk8QAS5RBBvx+da5VXcQ0MoLczZtx4p579LMpUN6Inr4+9MmhpxGBmjQezErq0dVVr4Neem0Nyviq36m3A22oFf/a0DGWI/8Erq+X9DZXoLgGaDX3GzG0oh1J7zZOQXki98sxYIAlyjDDPh8KH3xQ3aYzvGSJnpsGMqDIg9kqSwYXyiIq0KyPgOoA6zBfpDVoCM2XB0SROdb50d3tR5mYrrj7buNAqpbbYDkgy9cZ087Lti1HzoyyboZOtLf4UBqKrzKbXY4qXzfaIiKsW9bXS3ohN2djTxMq9RypsklOO2+/5gb5N1u33xjZ98tJxABLRMkrKYWvO4itMoiUBbEylEVUo63OOMCV1HeFMpe+Vh/8a1SoQXOFSmtCzzVVlqB+bSPKdTbSdeNc9RbygLmytgXt5hG3sx0ttVXqgO28bNty6rdGXTfFsjwzIMhstrKqFt1tHbqci9bXS2RtQHf4x0skh+0ngm2wSv7dkQF5zEL75eRigCXKMLmBAAa+8hWcaG5WVcQTojeIAFpQY2ZdZTIz0Qc4azZW0wIEgiLLk9WwjVie4FFUBrsWHbE62wNoNF/otGzjmbBY6yZ0tregtspcnlyvaqja4soq1HbramIXra/nlJdikR6NSwRb521sqT1Q28PIeuV0xS/26zLuwwBLlEEKGxsxfMEFGDn9dCAnR1URF6Xz1hwZDMwDqM5EQhmazEJkQCkTIatHz+sRGYt64RhVLkdjQJ6360R7QAfAsSzbad3UE70IBspRqiOArB4OH7xrRJizVxMnKG3r6zEqkxzjuWxHlWgyt4XcbpbtE6o5sLLul5MoboB1e4s2LOeM5ZxlSjknhfffj1M1NThRMA3Pv5GD9dtycHwoByf9fkz5p3/SpVJJVgv74VtZjxJ1IPVD1XjalesAI6gAJkdKlok8MUp5x2ytBMuqA2hvaEcgdLWv4LRsk7mcWOtmzVhFsO1o60atpRq4r1VXE7tlfT2nEssbAX9Z5DnVzgbLdMqzc8t+qedMFPv3N26A3b19vR6LjeWcsZwzlnOWaDm7wp/8BKeuuw7DpaX4zOUj2H0oBxv35OCzYjxv7hwMfPWrmPK97+nS42CpmisuXoVSkY01qdRKZBjywpIa8zkxyAt+5PlIX/g1dUGfztqM82/W8uqqT33+UlaP2qv+SpZVI9ACrKzXh82oyxasy2le5LxuophxQZMOgE7VwKFqYnesrxfJ8849jYFwlbcYaqDPecfYfmMSdb+cWPbvL5tKJHK5ZJpK3Nz5Mo4fOIJ3fnqpniN+TbOpxFE6G4rRXjU5B2PyBjaVSJSlcvbuRa4ImLKpRJnF5hw+jNzeXlz6yyaUBf6AvD/9Sd0PK5/L//3vkXPiBHJfeQXiiKCXkM3k7Tm1MK9vIko1BlgiDzv+//4fhq6+GsPnnKMG5OdjuKQEw5++AfnnnYOh973PuNhJPz9UVoYTa9caF0FlPXnhjEcvHiJPYBUxkcvFqiJOB/amQxTGKmIiIiKXYYAlIiJKAwZYIiKiNGCAJSIiSoO4AdbtLdqwnDOWc5Yp5YjIfezfX15FTORyvIqYaPLwKmIiIiKXYYAl8rCBgUHs338Ab721D7t27cEbb+zA9u1viMed2LlzN/r7+3VJIppoDLBEHtbffxxTp07FrFkzccYZc3HuuQsw48zFyJ29COctPA8HDx7SJYloojHAEnlcfn6eGPJRUFCAoZwC7D10ArPyj2PjrmEcGJyhSwFD4VOrRO4n+8/1cC9CEgMskcfJCyzkIAPsX7cD82YOIjd3BItOO4UFZxRj/fYCHOjPwfo38vGnrfmy7f/kyANeqEswOVSgOZGjX6IHygw4oFIUnQ2W/UYMqq8/IRWfebL75QRggCXysGERLIeRh8LCQuzrz8f0nGOq95wR+QRGMH0K8J7zhnB0ME8F1hlTRvDXHePoSae8ET1mZ+Q91WizdaRNZNfbXIHiGqDV3G/E0Ir25Pcbp6Ds0v2SAZbIow4fB+pbi9CyPhcFIsD+/qUTIns9JcKqDK3i/+K/HDEuh/PmAJeek4tTw8N4aacskQIlpfDpUSUikzAPcL1orvOjW3eIXSFSC3XAHZVtjC4XuTz3ZCU0Fr2Qfdo39kT2WlTZJKdtn/ndd6vA2dxg3X+SYN8vJxEDLJFH/dt6ETxzc/HHzSP446ZhlM4+jMHBIQydEsPQCIZEFjs0Ypx4zRPlOl8dxhERlPuOD6vMd9w629FSXopFxgQayvzwtRpZRE9jADWqGrAE9WsbUa4zjK76EpTUd4Uymb5WH/xrnMptFcsLYqVZTmYldaw+9pzeDrR1+1Baoqcj2D7zG+cCItgGq+RnPo5uBCP2y8kVN8C6vUUblnPGcs4ypZy0/DrgknkjeOBz0/B04DBOnz4ku34VUTcH8r74vNwc5Ovzs7sOAefOGsJvXxrGf20cwb3Jpgc621BZ5apS9HTVi8Ok0BtEQBwol+ujYsmyapS3RKkGtGamNS1AIDg6cMrloQU1ZjkRvLu7g9iqnyYPGUuws+xDkcQPuIh9IbwfVvxif/T9coLZv79xA+zu7eJncgJYzhnLOWM5Z4mWM50+IxfreodQWXJMBVN1RXFebujCJzmen5+LX/31FMrPH8GtVwOfuRy460N6AWOls42+HpF5JBPwZHAta0N1j5mZiuXop0Yx3ys0sHN0z5HVtd1t6Bh31YPsHN+yz1j2DZX5jne/TBH795dVxEQe9t6SHPQfO4LfbSpCz+4CI6CqwCqDrRFon9w8gmUXD6tzsUvOykHd1XJsnErq0dUKkWHqc2XqQOqHqu0Vejva0F1bFQ6I1oNeeTWW6fRClTNGDWY52/LIqyqxvBHw2y466mywTKcyINr3y0nGAEvkYb75uVhyThEuuaAYF5w1Df/yxwLsPiKDrBFoh8VX/M+vnRSBVb8glSqbjHOt6gIkkWGI7CFQY1TTlfl9aG0y64vrsbLWqO6t6FiGlb5wdV5d0BfOYK3lmhdFLE8NvIXHk+Q5d2M/CX+WNdA/vqyfuazqTYWI/VLPmyRs7J/I5RJp7F82IiFiqroV5783juDlPcCKDxXhX/88hL8tO4W503XBBLCxf6IwNvZPlOVkcJXkRU5Vf5OD2z8A/PzPJ3DerMExBVciSh0GWKIMVFSQgy+9LwcfvTQF51uJKCkMsERERGnAAEtERJQGDLBERERpEDfAur1FG5ZzxnLOMqUcEbmP/fvL23SIXC6R23RSibfpEIXxNh0iIiKXYYAl8rCRkRE8+OBD6Ol5EYODg3ouEbkBAyyRh8kAe+GFpZgzZzaeeupZrF/fjePHj+tniWgyMcASeVx+fj5OP30uli4tx6JF52PjxgD+/Od1qqcRIpo8DLBEHpaTk4NdpxbgyW2zUFBQgNNOOw3vfve7cOWV5QgGt6isdu/efbo0EU0kBlgij9vYdy6ODRiZrBxk0JVVx5dddimuuuoKFWBloN227Q01P6PI/mXZy05myoDPlgGWyMMGh3Kwr78Al8wbUrcKyAAqB3lbgepwXQTciy++EFdffZWYP4xnn30OmzYFI27FSZg84Mnuxhoie9rsbNBdyXn9gBht/TsbUBzRv2gnGqL2N9qL5ooEu9bLph8HahuGu6sL7UMp2wZ6u8tlu2ibMsASedgpESePnBjBluBr+OtfXwgN3d3Pq+Evf/kr1q37ixp27tyletvZvDmI7dt36CWMUXktagOrwv1sigPkqkC50aer7Oy6qx66L/XMUdmE1toWrNJ/dG/zKqC1KdyZvFVvB9ogtpH4f0e8o3ymbi+b3uYKFNeITdbXp64LkEMr2pPvEN0xKJegvkssu6cx3L+wC8QNsG5v0YblnLGcs0wpJw2PAI/8ZQgnTgHPHSpF0TmX4w+HrsDl73kPnh+8HO8Wjy+cejeuuPJK/O/IFVh61VV4EVfio1UfxX/vXKCXMlalqKoG2nT06Fzjh69azJDMA59+bJaZrcz07NNm2VBGY5lnL2ehDtSh11g70w5ijZm9WOfHeI/QS0PTIgOq84sfJUZn8BW2nrorm1rh89ehubMZdW3VWO4YXcXiOtqA6uWo8nWHtpGR8VqWqdZLrOeT4XWJ+Nus6+d5vZCbpLEn8gdJZZOctm3zu++O+fl7gf37GzfA7t6+Xo/FxnLOWM4ZyzlLtJz046eAAuRhRsEwDvcDXa8VYt7MERzpH8CNZUM4cvyUeBwWGa54fNcwjorHz+nHW65Mvhu7RfUrRbBZowLnqkAjli/TT1iJg2awSmYr+sAaMS0CTpkIzK1GNtPTGECNWWVof51FSX2XKq+GVh/8a8zXBFC61lwW4K+TASrGezgSGdBakf2UN6JHlO+qt+eVlVgul13Thuq10bJOI5hULytBZVUtuts6dKCsRJNaMbHNVFARy+jpQv156kkVcOv8vlCG1+oLYqt+yvNkRt/tQ6njBrNt8xvnxvz8vcD+/WUVMZFHvWch8PP1I9iwYwRHB3JwsH8E5808hM17BrB17wC27x/A7sOD2HdkCIeOG2WCe46jY8NbKsgmrxJVtS2okQFsZZRgIw6aEVmedbo3iIBlumRZNcpbdJWh/XVWKvPTWV5NCxAIGgGsvBoipilqWd0iQMV6jySVlPr0WBSqelivS2UVarst1cQl9Vgrg3xxGdqq1yIifpeUwgexPXXWZmR3GaS8FIv0aFxRP3+jFkB99mK/M7NeOW2vbXATBlgij1oqjlo/vmEA0/KHENg1hMLcU1hyTjHOO2smFp49CyXzZ2Hx/DkomTcL04vysf3Nw5gzLQc1S+fj9JmFeinJqRTpXDlqUTVRkUAG1zKZ+RlZ3sSfaxMHeHkeUWbOKkMeTVYPhw/8NSJkWquJYwVokeGq7LUK7eq13qwedSR/PFh/aCTN3Eb6sxeBWGa9cnp0bYN7MMASedh5c0Zw17UHcfFZp/Dehcexc/9xHDw6gGMiQz3SP4jgzoN49sUdONJ3DO+9aC7eMX8mCvJT8LWXF+gkW42nDrp+mDW8KjDVVsVfliVTVa8xRiOElhXrPWSGq+Y6LMfynFXowqbK5WhEeLlhsnq4G7W6SloNrdZqYh2g+/S5XGvAET8eGtQMGUR60FgeQHDcAcktdNV6WeSPhs4Gy3SUbZ6UrUHH/WKyMMASedjwyAiK8gbx9Y/kYEaRcV519/5+bNi8Bz2bd6G48BSu/ZszRTY7Uz3nDsY5yUCNUcVXJs8/NsUJryKgr/SFqwXrgr5wBmupLixrq0aPWlaU9whV1TosR76HrPoW8yOqHTsb1HKNqkvjvGGgxpZlquphW/VmqJpYVm/K6Cp/kIj1klmwNeCIHwNihlqfYqcqZI+T587VOXC9zeVQA/1jx7rNf7FflR87S/VxTQCNUc+RTzx2V0fkcrG6q3vrYD/+GjyIJRecjR17+/Dm/iOYMy0X7yyZg3mnTdelxobd1RGFsbs6oiwlG2Y6cKQfz7+yHTmnjuFD7zwDH3nPgqSDKxGlDgMskYedNnMKLpw/E1XlC3DdOxfg9FlT9TNENNkYYIk8rLAgD+UXn42Z08Z3VTARpV7cAOv2Fm1YzhnLOcuUckTkPvbvLy9yInK5WBc5pQMvciIK40VORERELsMAS0RElAYMsERERGnAAEuUYXbt2qMef/zsEPYeOomBU7zMgmgyMMASZZCRkRH86U9/UeO3vS8Pm3YfQ+CNw2qaiCYWAyxRBtm+fQdmzTLaHX7gT0OYOTUPR06MYEj2zk5EE4oBliiD7Nq1C6edNluNywz21NAIzpk7Hdve6lfziGjiMMASZYjdu/dg9uzZOHXqlKoqlhns8JDIYqcXonfvMV0qw8h+Yiuc+2clj8uAzzZugHV7izYs54zlnGVKOSevvdaL+fPP1lPhDPbE4DDOmD0dr781ziArD3iyS7CGyM5QOxvEPHkg9PoBMdr6dzYYf5+eNLZDRWSfriG9aK7Q20PPiSoDAkjC5DY0u5Sz7kOp2Abq87AsUwvtl3p6Iti/v3ED7O7t6/VYbCznjOWcsZyzRMvZ7d9/ANOmTcWUKVNw2mlz1DyZwZ4SGezxE6dQPLUIr+zoU/PHpbwWtYFV4eAiDm6rAuVGn6qyE/Yu9/TFmTKVTWj1hTtZ71zjBxqj9Nmq+oUV20j8vyPekT1Tt5dNb3MFVHe4Zkf0YmhFe2R/umPhFJRj7ZcTyP79ZRUxUQZ48cWXUFq6GFOnTlVVxJLMYAdPDaN/YAgnh4ZRWFCIHeOuKi5FVTXQpqOHDDa+ajFDMg98+rFZZhDFDei0T5tlQxmNZZ69nIU6UIdeY80gg1gjs0b7/BjvEXppaFpknnV+dOvO2yM6XBcqlzcisMr421a11GJllB7RezvagOrlqPJ1h7aR2EqqQ/DQMtV6ifV8MrwuEX+bdf08rxdykzT2yM7mwyqb5LRtm999d8zPP7YY++UkYoAl8rgjR46KzLVIZLDTVHA9cOCAmq/OwY4M45gIsH3HhzB9WhF6tu5Xz43HovqV8PnXqMC5KtCI5cv0E1bioBmsktmKPrBGTIuAUyYOgK1GNtPTGECNWb1nf51FSX2XKq+GVh/8ZkrZHUDpWnNZgL9OBqgY7+GoBPVrG1Fe3ogeUb7LHkBFtrlSZLF1dW1imaPXzWAEk+plJaisqkV3W4cOlJVoUismtpkKKm2o7ulC/XnqSRVw6/y+UIbX6gtiq37K82RG3+1DqePvEds2v3FuzM8/noT2ywnGAEvkcTJ7veyyS9T4wMBAqLF+mcEOD4/gWP8ghoZGVIPkxwdzsPfQcfV88ipRVduCGhnAVkap4hQHzeXWI6R1ujeIgGW6ZFk1ylt0laH9dVYq89NZXk0LEAgaAay8GiKmKWpZ3SJAxXqPJMksVoTPGOsnq4f1ulRWobbbUk0sAvRaGeSLy9BWbateLimFD2J76qzNyO4ySHkpFunRuKJ+/kYtgPrsxX5nZr1yuuIX5o/GBPbLCcYAS+RhMqDm5+erquGcnBw1np+fh/3HgB8+WYDXD0/H1MJ8zJiah+lT8nDeWXPwYu/4s1gZbMpRi6qJigQyuJbJzM/I8vpERjjR59fikdXD4QN/jQiZ1mpiGUd9esxOZLgqe61Cu3rtWKtHXUz+eLD+0EiauY30Zy8Cscx65bTKfLUJ3y/jYIAl8rCNGwO4+OKLVHA1A6zMVOdMG0Fh7ggGC85Ga2AWtr6dJ4JsPhacOQNHTgzh4NGTeglJkhfoJFGNp6iDbviiIRWYaqviL8uSqarXGKMRQsuK9R4yw1VzHZZjeW5sZPVwN2p1lbQaWq3VxCIDUxf6tMLnr4u8Aln8eGhQM2QQ6UFjeQDBcQckt6iETPz9ZZE/GjobLNNJb3MH49kv04ABlsijhoaGcfLkScyePQtHBgrw8xeK8PTWQuwbmIXubbnY9NYpvLzrFDa9OYI7Hs/B28dyMaMoDxcuPAMvvz7+LDZ5xjnJQI1RxVcmzz82xTkk6nOgZrVgXdAXzmAt1YVlbdXoUcuK8h6hqlqH5cj3kFWMYr79Iqe4VPWwrXozVE0sqzdldJUHfrFe8vyxNeCIHwNihlqfYqcqZI+T587VOXC9zeVQA/1jx7rNQ1W9mYMdrhO5XLQO1+W5171738YZZ5yOY6cK0P32uXj9SDEOn8hRzSMW5Y9g18FB7D6ci09ceAgfXNyPPJXpArv2HcZNyy7WS4rEDteJwsbT4ToDLJHLRQuwkvzyy6phkxw/dhIoEN932ZtO64ZcvPf8QfzjB4xbd2QLT9KUgnzMmTlFjdsxwBKFjSfAxv32uL1FG5ZzxnLOMqWcSX7xzfOvZqCdLuJmYT5Qc1kern1HDn5QXYiz5kxTw9mnTVdDtOBKRMmzf3+ZwRK5XKwMNh2YwRKFpTWDJSIiorFjgCUiIkoDBlgiIqI0YIAlIiJKAwZYIiKiNGCAJSIiSgMGWKIM8qUfPoPGX24QwwuhoW71U/pZIppIDLBEGaQw9xgufMcZYjgTS8SjHKbk9OtniWgixQ2wbm/RhuWcsZyzTCkXzdFDh7D3rbfFsA/7xKMcjvYd1s8SUTrZv79syYnI5cbSktPf/p9H8TcXna2nDK9u2YtffO+zeiq+jG7JSfYrWwes7XJHh9wUg0s+K7bkRJSlftP5Mv5xdSduv68LX/1hF04OT8G+vQfEcFAPBzAg5v3Dv3Tg9h/+XpTtwMtb9uhXJ6e3uSLU7ZgcEu7aTR4wK5p1/6hRJFLGTr4mmfWJJ5l1sbMuIxXL86rOhoh9prjB7Kg3Rds4tGx3dVbPAEvkYeteeBm7dvXi0P7tOHpoB86YfhLHTw5jYBBqOH5yCLMKj+NY324cOrATBw/sxkO/flq/euxkcFV9rpqdivf1oDpodioeh+wMO+XZSCcaytpQ3WOuTyt8wRR1352K9U3L3+wt6geZ6mze/Iz60Ir25AOhPSjLbdzTiPLyRrFfuqezdYkBlsjDvnnrR7F18yt4c98h9B0dxMnBHAyNFGA4p1ANQyOFGBzKQ1HhFAyeHMCe7a/hn770If3qserEGj/QuNYaMEpQ36Sn42US5oFRPzY3mGWLYSQ0vWiu86Nbd6CuMtGEshMfSkMrVIkm2bG6/SAcMR3EmgpzmRUIJ7yyY3Rzvlinnzutr7kOUcqq5wTz/ULv6/C3ZYVedLSJfaYnMvBVNslp2za5+26H7extDLBEHjZn9kzc+/W/x4F9+0QgFV/nvCIUTpmJKVNnYer02Zg2fRby8qfi1a0H0LPxVTTc9DGcdcZp+tVj1BtEoLwayxzTMZlJ+uFrNTKUnsYAasxqQCfioBqs0hlNay1aVskgJIL1WjMT6UNX/dYEllmJqtoW1MhAF+v9rLoDKF1rLhPw1+kAWKHSLGOdxND0Xl1eCq2vDgyxyjqy/21ZktP2dqCt2/oDyMq2TW6ca9vO3scAS+Rx77/ynVh21WKRreYgJ38GcgpnIq9QPOZPx1DuNAyiSATaqVi2dDGWfeAq/arxkkFGZ3AqU5PBtxHL9VGxZFk1yltiVANaymJRKcr1aIQEl1nZpANdVbuxPvECreVHglpmdxBbZSCAZZ3srOsbryxFKi/FIj0al3U7R7DUGIgfXWbWK6fdXBvAAEuUAb5x+xeRe2IXZs0uFlltMU6fO0cNc2bPwqxZszHUtwU/8N+qSyeppBS+7jZ0qOOZyD66RFCT577Uky5Q2SQCbStqYwV2mlgR+8x4VKJJ1xaofU4EYvM6ADfXBjDAEmWAwoIC3PO1z+O1nqcw+/TZmHvaHJx22mwUz52FrS/9EfesrEXRlEJdOlmVWB6qUrVRB1I/1ujI1tvRhu7aquSq+WRGKR8TWaY8x2nNWFXWqzMmczmCeq0etwots2QZqhF+r5iilU3g/axlsoPeZ8oiz6l2NlimM3ibMMASZYiLSi9AxeXz8NaOzZg+baoYpmHfzi24YsksXOZbokuNT0l9F3qq20LVc7K6DtXLRD4rMgyRWQRqjPllfh9a5cVGY1VSj5X6nGpF86L4y5TBLlBjrItanzZUy4uwxHLWynO2en5d0BfOtC3Vi+qKaLVM43yg+V5yaPizUXw0h7JbY7yfKeJvy5aLnOSfLfYZy7aRQw30DyXrNvnFflV+zOSPrFC1sbsujorb0IRsmWL39vV6KjqWc8ZyzljOmVO5sTQ0IW+K/9gXG3Ddp/4RuTk5eOLRf8YffvmTMTUYkdENTRCN0VgamrB/f9mSE5HLjSXASrv3vIX/76Y7xUEhB7955B6cMz+yZad4GGCJwtiSExGFzJ93Fn7w9dvwff9XxhxciSh1GGCJMtAH3r9UDUQ0eRhgiYiI0oABloiIKA0YYIkogrygwxyIst14vgf8BhEREaUBb9Mhcjl5mw4RucNYbtNhgCXyoCNHjmHPm29hy5bt4nEvjh3rj7h/lYjSY+bMGZh39plYvHiheDxLBdho1chsycmG5ZyxnLPJKjfvvCvw13X/gZ0738SBA4dw4uRJjIyM/ip/6VY/HvpJo56KjuWcsZyzbC43tahItfO9YMHZOG3ObBQVTQkFWPv3lxkskQcNDp7C8eMn0HfkCPr7j+PUqSHHAEtEqVVQkI9p06aieOZMTJ1ahPz8POTk5OhnIzHAEnmQrA4eGhoWgXZQPTK4Ek0MGUxlUM3Pz0deXq6aZoAlyiBmQLU/ElF6mcHU/uiEAZaIiCgNeB8sERFRGjDAEhERpQEDLBERURowwBIREaUBAywREVHKAf8/NGqhvKRakR4AAAAASUVORK5CYII=;" vertex="1" parent="1">
          <mxGeometry x="100" y="221" width="472" height="409" as="geometry" />
        </mxCell>
        <mxCell id="0hu4hQmYEvxT2WlQdL5b-2" value="" style="shape=image;verticalLabelPosition=bottom;labelBackgroundColor=default;verticalAlign=top;aspect=fixed;imageAspect=0;image=data:image/png,iVBORw0KGgoAAAANSUhEUgAAAewAAAGRCAYAAACnloB/AAAAAXNSR0IArs4c6QAAAARnQU1BAACxjwv8YQUAAAAJcEhZcwAADsMAAA7DAcdvqGQAADeaSURBVHhe7d0PcB71fefxr2QbcFsSt0d6ba53EJAwBtSbGtNUouCj1EwkfEQuY3WOTozuuOqZuHPw6ObsK3/MZHASOvhuJHOMU6khNZ6pOyeSWO3ZEuAjrieHfC3E/SPAGKkUSpv0GkhMnBRj2db9vr/97T777LPPP+nR8+xK7xfsaJ/dffbZ3efxfvb3293fNp05PTVriNK/Fy5csH91kPb7w/2/4f7wXwAAUFpTU1PB33Cnmpvzh/nDmz74wRsmc70g1oC+cMHr91/7/V6XC23tlOmzfwEAQGkmfr2/oTD2A7q5uTnvr/k/6Lfv+af3T876wXz+/AXTnQ+CWsPb9ut/oaA2/9u/yv8LAABKC8I3EsjNTc22f9ky76/f6TTetKb70anXbWBrWJ87d877e/6cDeogsIOgzu+U+wMAAEL8nFS5oLZ/ciFsOj+cNayXL1suy5cvc6+9v/oeO+0Pv39i1g/rc+fOy2OP/643NwAAUFf/OfvvZcXyFTa0/cAOQvv0916b1aCemZmRGRPau/77l2Vg95B7KwAAqIf++zPyn37rM3LRRSvyQjsoiWuJ3aviFnv+GgAANIZ3HZl/EbjX+aehm8MDdSIAANAY/sXf5y94we2HtQ1sv+fCrBfaAACgMfLv1MoVqJUNbE3xX7hxo50AAAA0Ri6k/YK0K1SbYUEJ+1t/+scENgAADWSD2naFt1Q3vfudv5idmTknZ2dm5MMPP5Q9v7u/oqvEJ77xR3Lyfw9K8w+mzatyQd8kFz7SIqt/NSsdv/JpNwwAAPj0KvF7PrNJLr74InuluHZ6X7Z/j3bTd7/953mB/aWhPywb2BrWTUd7pf1fnHJDKnPs71fJ7Pq9hDYAABEa2J/5jU/LJZdc7N3atcLd2tWst3c1uyrxoOlR964yXj88UHlYX/xTIl3Pi/zsevmlj5+SV5/f7UYAAIAwzWL/PLZfFe7nc7M/gd9Vovn0mzIzu1wu/MQnRDZ8XWT974us+IgbG3LJx0Q2HhH5mV+W2WWXyPvnPyoXTr/jRgIAkF7amMm3vvUt96qQjtNpqhEO6KDfFapDDad4XSXOXLhIvn/up+Tsuv8mM997wyT4CpFrP+vGOpf8tAnrb4h8tFVmn98k77/1f+Xs7MUlPmNcMq41F7/LjLtReXS6m2S3njqf3i03+f0VmZbdN4U+46bdZshSE93O1Wy/BVb19zlH45nQ+mfMFrEDc7+rQHhYJb/PYr8vfW/4c0LTmK66+ZRbRu9zxjOh94c6ALXz8ssvS/tNvxwb2jpMx+k01YgrWfv9toTt0wGVaDZpf0nzB9L04XtyftV19oIy+ck1bqyx8p+L/FsT1h+5Sma/cbf88P33bFiX1yGDU7kFHep0g4tpuV9enH1R7jcfH78zC7Fh0CqvPZyb/+zTIocKdpaLQZltEdrOU4Mi2XsadeASWc6873OB6O+gS2TM/w1MXStvVPwbCP0+zYZ7pcsPYaOq31doPmN9Mjzn+RTXOeS/f0z6Qp8HoHZuuOEGOfbi/ykIbT+sdZxOUw3v3218Qdqew67Wxc0fykeWnZamP90uM98+Jue/c0zkql8XueY3TVi7kvWlV9qwlmt/S37szoMiy1fqteKyomnGzaWeTInlnqxcPxY5CDABcX+5g4JFruX+h6VvYkQONSax62/qNZnouFZa3cs5/wZarpbr5RV5w263efy+OrtNoNZgPgAaIhra8wlrFRfWfn9eCbtS52eXma5Zzpw9Lx/81Zfl7LGHRJ69U+TUSZE7XjBh/YkgrOVnb5HTR7dL07kfyarlp2R50xzaK7elDq9K76bdb7iByi+h6d8uGZYJybaa6aJ1jNOHZGSiT7pL7fRCn6FdbhbuM8Zz43Xc9O6bgmlvCoqIhdPmxhnlPmN3rqq2+PsiVbgF7ymzLUry5pnJ6Lq5z6liu1S6zN78dXh0Od08/dnEziO/uriq1VMakBNZuSe8rHMxPirDfQ97tQGV/L6K0fl09Mgd850PgIYJh/Z8wrqcILDbb77L9ZV3dnaFvHfuMjkzu9K+/uDCSrnw7p+L3PREUA3uh/X7z2dk2Y99TC5dcUZOn7/Uhn1xbuedt4M2O/FWr9ShRxhPy4jZyUd1ylC46i+uLj1cqiqQ/xledWcoOHS5Pi/ytI6zVZhNco9ZEjuteT2R3eWWVYWm9eqb3Xwq+IzXumPmqe8bkZ6gClXk88Gb4t5TwbYImd79+VxgWBPyyrW6bkNmTlVsl4J1Lb7M3vx1XKnlLDKP8V2SvX7Mvb+C0yYFdPtMSc9I6xwC36yv//vUavXwh5f8fUWF5jNqvr8X75dg81c1HwBLSRDYx775NddXnpaSL2n6wHZazT170U/K+S5Tsv7o6oKwvvhf3So/sX6XfPgv75JzJug17IsLnduzgWFMvyGvdAzKNrdvtFW4Xm91Jl6TKddbQD/DzDUo2bTcLw/3TchrwRvMcj3tdqq2CrNDevyEy6vSVKFpw/Op5DP8lQzP074vHBSmTBq8qch7ysrNrzV7vYyFAyO8btVsl4J1Lb7MwfxLKTaP1mulY7grvzQfFlsqj2qR+180vzF7AFJNaJv19X+fU9fK58O1AaV+XwXcfMzndwyP5i9jVfMBkAThavBw9XitzalKXM9Df2T5adtpNfeP/+v/KDLzgZx//i6Z+cl1MtN8qbz/XJ8su+jH5aKfapEfvviIfPimt1tqyHWqLXdIT8ewjFZVmqqFaXnjFdc7L325i6S0q75YGREKHv/AaN6i61qLZY6ZhzkweNH0Py332FAuCFs3vqJ1M9M+Pdghw/aH0SrXdniDA/ag4Xq5Ou74wv6m3AHKXH9f9vNfydU+lJ1PlcsIYMFFz1lHz2nX0pwCO9C0XFZc8xm56P2/lPN/vF5Ov/WinPqzJ+TUgTtl5m8OyYqpL8v3v36nfPCXXiW2LZU3n7H9FdOLeyayssvtxGwVrtdbBVOietirys7bwZvS2G59bS8gCu0ozfDPD8/1XOKEjPhXcIXPSc71M9z7clXKdVR2mUuv67yWucw8Wu5/UaZM2L5SWZVCzrj5zoO3TMuhkQnpuFYroVvk6utNiT50xfz4rqxM9HXHh75d3w6xby33+ypBa4yuD04llJtPlcsIYEEVu8BsoUJ7joHtysl67/XyH5flP71WZn7u07J87X+Vi6/aKCtWfUI+2v7bcu7a+6X5p9fJpb+yW37iZ66VS5edzr03VqgK1HRetWenDLnzxjrsHukx5a44ndLd594fV8fZORRUgfrzb7pH5A67pzOfER5nz53OteTZIde/5pX+muz5X38+c/0M731mxXLLHbd+ecpsi4qVW+bS61p+mUstZ5F5hO6h1ur8h6u9B6zzankt+I212vPhL7p5dA5NyaBkpdXNv+uVQZnKqxkI/T7ttgjdglby91VKp2yzp/9dCJeZT/llBFAv69atKwhrnx/aOk2tNP3DO9+anTk3I2fPzsiZMx/K7z01UrYt8a888G/kP3ziqMjP/xeZnTkts1fdLaf/8mm5uOVOOffea3LxPzwv5675rJz+RlaWfeRy+cgv3i+zf/us/PCNP5YDf/vzcu/v/Imb02IzLpmmz8u14R35orWU1hUAFp62Jf7rm7uCtsT99sSXLWu27YnPqYR9zYZ+70Eer31JzqxskQ/f/3s5+84ROfd3fyIrLxL5wanv2fuzV/78b9p7tmd/9B354bt/Ky/9/aWy5vZ+NxcAAFCpOQW2Pm1Ln7r1lalPyr7fH5Kn/8cO+dpfNMv//OrX5StP/Z4882c/kv1f/V+yf/8fyFcn/lF+/8t75Kt/sVwuve0JntQFAMAczKlKHAAA1NaCVIkDAID6CgK7mpbOAABAfQWBXU1LZwAAoL6oEgcAIAUIbAAAUoDABgAgBQhsAABSIPY+7M89+rgbDQAA6uFzj2znPmwAANKOwAYAIAUIbAAAUiAIbFo6AwAguYLApqUzAACSiypxAABSgMAGACAFCGwAAFKAwAYAIAUIbAAAUmBRNk36+OM0rQogubZv3+76gJxyTZMu2sD+whe+4F4BQHI89NBDBDZi0ZY4AACLQBDYtHQGAI112223Vd1h6QgCm5bOAKDxXn755Yo7LC1UiQPAYvbmHtmwYY+86V5WZT7vXUhJXa4FRmADQIq888470tnZKc8995wbUqFGhVzawzW8/A1el3kH9oZVq2TDntDiJ+3LmR6UjqYmaXJdx+C0N6xjUExfjj8sMr12mXE3TWBcMtH3A8AC07Du6+uTq666Sm655RY3tEJXbpXDh7fKle5l3TTqcxdCg9dl/iXsG3vlugMZCWd2cphgbR2RnqlZmZ3VbkzaTky5cSW0D8iUnd50UwMyuTMXztODHSbEu2TYvQaAegiH9a5du2TlypVuTAwtOJnC1Crt1j4oL/nDXGHqzT0bvHHa6TA7LivZDW6Y6bKH9U05ee9ZtcHt89+UPeY9uWkPSzYY5/if6/7uyRb/DFWwbHaozjf0vhftQHk2bl7hdfeXJbJ+2cPecoffV3T9Mmb7vfSgrDXDN+zcGWzDgmWKWZdaq0GV+NVy3/br5MEnCpc2dgNUsOFiN3gwPPJjKKtNVre4XumUoaFO11+hqRNyrG21+LNoyU7YEG93rwGglrSqW6u8NaB9VYW1BokJ6eueOSWnTpnu+BflRjfGMvvRzIPXyTM6znTPXPeG/LUOf+lVuXrIveeZXtm7OWvmlHPl1sPeODve3+dfKVu3m2kPuSkPH5K9vdtla7EiqAm+N+4Ifcbjfvg5scumGbFZzMDg8wdvMtPGzkvX/Q3Z7qY7dXyTHMi4z/DXz65bRsTvd8tQdP2GzPa78Yty3Aw//Bv/TOdkxCzTBjdqAdXmHPaGQXlGNhccYcRvAKPkhiuxwavWKd19w9KlVduF9drFHeuXVr9KvGtSBrZVGfIAMEda1a3BrAGtQV1dWBtvTsmrJmDuKxYgV7bKdbJXNq/yAnnD4KDYSW/cJJ/yg3bDHdIrr8pU7pjBFZhcQWrzXpFXp7z9sk6795Cd1+FDe6X3jhLJFV6uq67OP5BQccv25rNyQGLWJ25euu72/W45tXbhJXdA4q+fThvu13Gq2PrFKbZMC6xmF51tuO+L8mrM0VLsBii14UptcD1/cOpw8aO3GJ1Drmq7e9QL4EqCO69KvEdGtnC+GkB9aCBrMPuhXVVYV2SDDNoC0R1yyO5n80vSsXRfvvaAbDruF6TCpfYNckfvXjl0+LAc2tsrpfK6vDksW5QrDQeFxVPugKSUkuuXHDULbA3ToU0H5Iln3ev5bIC5bPByOofsOey+4VGpoqwt0rJa2o6dkArOfANATYRDu+qw1lLqSwfkWVd6evPZA945bJ/ZN2fteUUNx+PyxRsjJWmlVdtamPqX7rXyC1dGdJ62wLZ5s7z6xfvmt6+OWzb5lGySByXmrGshu+4VThtVYv3ELzT6rqximWooCOxatHR25dbtIg+6CxxUqQ1QTKkNrgcB1ZzD1iu+wyXq6ZMy2b5GWm0Ij8jBULF5+uBI3rnqwPioDOt73EsAqAcN6CeffNJ21ZWsTdjpKci1Xi1l5o3r8gtLZh9rRno1mKvWyoFNQ7JVg9ldWOXViIo8E74a2hTItl+XG184TxNgN94om/wd/lzFLduV3nnkVze7ZTOdf9FZIbPupnAYnjZ34VoJpdZPx/V6tb4b/uA9f2DhMtUhvOf98A+9Ym4o/MUezsqqx6+W42bYX2dXidaEqxt7e0VevVqGhkQyetpa36MBXKzfv7JRaYk7GK6l9tLV4rmHf0zLYEer9B/zhpvDEhmYmpCsprKGeWu/5EYNyNREVlqiw6VPxmaHxD+LrVeJt+ZmKH1js1LtdWwAlq5SD//QpkaracFs3bp18sILL7hX8xDe/7pBVQnt9+cZ2UsaT+sCgAQpF9jVSkJgHzaFs0N31OdK6cWMwAaABOHxmiiGx2sCALAIENgAAKTAoq0SB4CkokoccZbkOWwAANKGc9gAACwCBDYAAClQ05bOAADAwggC+9g3v+b6AABA0lAlDgBAChDYAACkAIENAEAKENgAAKTAwge2PgXGPS/U67JS52d+e8vgPxM13A8AQErUp4Stz7M+dUpOafeMyOZGBuaVW+Uwz2wFAKRM/avEN9whvS+9IX/tSrp7sqFSd15pPDRsQ1ayG/zhqyTrF9Hzpt8ge/QooGC+b8qezIPy0ksPyloz3YadO/NL29H328Eb3DDTURoHACTAvNsSf/fdd11fvMt+MJL3YHQNw7UHNsnxIZHM2gflumf8h54fluyqzSLutZ3uje1y6r4p2bD2gGw6fli26gwOZ8Wb7A45tOqQ3HFqUOzbNXz1cwrmGxqnyxD0t8oTRd//hmx3ww9nsyKDbhqj3PoCAOC77LLLXF95FT/844ZP3ilHDu+fU2CXXCANQhOgL7mXtno8Lzhd9XTcaw3O41fL4+HhNtgfl6v/aJMc+HRovlavPFMwvRGet9/vgr3g/fZAYLPstf25oAYAoBpl8zGi4od/LGhLZ+Fz2OEgna/wfG1XZcDGvn+DDNp+DW6/Wh0AgMZKzm1dV7bKdS89KE+4dHzz2QPyUu8dhQF8+JDsvXGTfGp9/vRl6Xlz12tFPi9gSuBZezJbg/u4fPHGV2WKk9gAgAZLTmBrQB7/ory62bvYa+2D18kz/klod8GYvQhMz1/bUnr+9CUvELtyq2zv3SubzTQb/uA9N7DI+02Qy4Nr3bC1cmDTkHfuHACABqrJRWfV1NFXLXpuGwCAFFiwc9gAACC5kh/YNHQCAAAlbAAA0oDABgAgBQhsAABSIAjs9pvvcn0AACBpgsBe0JbOAADAvFAlDgBAChDYAACkAIENAEAKENgAAKRA3doSf+JLe10fAADpdt9ne11fcbVuS7yugb3jt+93r9Bo3/72t+XjH/+4ewXUxmL5XfHvA8Xob+Opfc80JLCpEgcAIAUIbAAAUiAIbFo6AwAguYLApqUzAACSiypxAABSgMAGSpkelI6OQZl2L1EnbHegwNINbN0hNDVJx2Bol8BOYvEr+I6nZbCjQ8I/A9SZ+7fY5Lq8f5MoLrLdtMuMu3G1Vsm+MTxNJdOjaku7hN3eJ20jW9hZLyUtG6VHRuSg/51PHzSvemRji3uNOhuXTKv5BqZmZXZWuzFpOzHlxqGs9gGZstvNdFMDMtm1QKHdkpWJiaxU/M+k2ulRkSVeJb5Gtu1ok/5dhb/w6cGO0JGrK4HZo8aMZDr8o1ktnUWObPOOeim5JU+LbOwRGfETe+qESM9Gu2OJ/c590RJDtDTBdz4PbbI62LN3ytBQp+sXOZjxt2uxf2MZE/luWN734YabIYPm32zhv/BFSENSQ3tn6d9l3u88+E2bA6dgWrOtn/K256Dd/mb7+dvX/s3tA+203hcgg1v65dixfmk1wzoefqjIv4/878ubf3g+KIVz2J1DMiZdBT+WluyEO+I33Vgo1I9Nypp9OqxPhru2iPj99h+JlhZOyI7giNeU5bb4/yCQFC2r2+SYK8WNjw5Lm0uLot95SXzn89Mp3X3D0qU77eg/QrPzP9Htfx/hf2P90jbmDZ8amJQufV/Lamk7dkL0W50+OCJtfSKjdnZTcsIcmLdq71IQbIciv0sTlFv622TMDR9r02n1oKZLzEBvWtMNrTfzCrb/kPmWQvx9oE5r94Mawi2S3Tcg7a7EP9H7MTdxke9LxX6/KIXANjq3hY5KfeGjwq5hkcmT3vh2V33ausb8OEP9Om76pEyK2/loZ36ox9xOBAnS2S19w6NmVzItJyf7pNvfGxX7zkvhO5+3ziG30+4e9bahv0M3O/9t/ncT/jcWGt6ysUfa7XepwT8pJ80XNnWiTbq3rZFJTWydvm310quaLfa71EC3w72SbueQCWN7Wii0rX3h7R/m7/eU/lsyn6TbPVbR78uI+35REoGtWrKyr2dEdh10r3XHHT6vNmWOHN2ossyPMDinZLvI0SkSwO3cx82Oqq3b+374zhuvc8hsuzF3MFU9s8+XE1PjMjppStR6rcKkmc/UCWkLjsiWABuQrkYh9nfZKUO2v1tGbZgvkdMFi0QQ2Eu9pbOW7A6RfnMU6l6HjyK1ii0YXoqtjuqXimpS0VCd3W3S39WfvzMv952HSs7BeL7z+dEDpXBVeDhw4kS2t/0e+ryDLi29yc6dMmmvSfCuVRgdFVmzZOrDXfXzjqy0FPtdmu2dsSezNbinZKDdHLiKXog5x9/w+KgMh0vc0dqlEt8XqhcENi2dmR/wWJ/Xa0rcO9q8iye0OmnLibYKS1tmHu5KTVsNpV1wUQcSxVblharDy33nWguj598KxvOdz4stCXfltp3WcuwrdXVx/vZu1fOx/kVqJhz0KKrHpYe+HDal7SBMFiMThv5vtqlpp6yZmhVvcxT5XepG6W91w1plpGefZFu888/haTNH7dzjhT9TT337V4PrvyF3PULH3u/aSUt+X6gaj9dconh8IBYCj9dc5LRGRK+1XcK3bPF4TQAAUBKBDQCoTAsNojQSgQ0AQAoQ2AAApACBDQBAChDYS9Tp06ddH1A7i+V3xb8PFNPI3waBDQBACgSBvdRbOgMAIMmCwKalMwBIifFMrlWyuTQputC0gRVa/Ks5Wjpbok6ePCn79u1zr7DYfeELX3B9hb7+9a+7vvn5tV/7Nfu7Wr16tRuSXslej3HJ2GZIJySb1Bui69kiWviz6vC5+tsYOfBsQ1o6I7CXKD+wS+3IsTg89NBDZQN73bp17tXcvPzyywR2vWgo2WddJ/ipcI0KbDdoITUysLnoDABK0UDoGJTBjHvgRagaenqwIxjW1NQh9kFYdvqMZDr8aadlMOj33menib4vKm8a/zGY3hO5jvnPui6odtbSt/8eN94tfzBd3uv86XX58tapYP7Fxkfm4x4ecjBmm8Wuu12m0tssdlubTx/cos/69h5I0vHwQyXXLe0IbAAoxwTCiW73XOmxPhne6YVCS3Yi97zpsTbp958jeWxS1uxz03Zp8S/8Pg1dLSG79031yMiWaDDqNP3SNuZNM6VPirOJ4z39qt1/1nVeqVJDTh+f5c+33DPdI9Obbqh1ULboE7Xc67G2yOMyTbAWjo+Zz3ozbew2K7HuJbdZsW3tPWnM3x4TvR/TORkxy7QIHhJGYANYMFrVXm2XSCYQtvk7/NY1uSAMlxa7hkUmT3rh4z8jWqcN9+s4fea3X0LWTkvM0edI2+eC5z5Tn/XdPjxq4q6UKTlxLPTI2HKmD8qIhNZL6fOr7bJ5JfrOoUi1e9z4uPmouG1Wat1LbTNVbFvHKbZMKUdgA1hQen670i5VNED0+d1TrhRXtkQb4peQgy4p56NNCd4uT7eM2nD0q+J95cZXYC7rPp9tvYgkM7D1y4k5d4IFkvbtHb3Fpd7rw+916fJLgsb0wRE55vWWpqXUY/3i157Hikxj593XXSbYWmVN+7CMxs03VIIPlrNlo/RIZDnMbzljTw5rME/JQPuknAz/sOPGS8x8iqlk3Yspta2jNRRx67YINCawdQfndrC5zhypseND1cYl0zUpA3rkbY66J935rgC/KSyUlqzsaPMudtJ92JYTbRWW+rzz0JNdof1fwW80f5pWPW9c9iSsdz43mK+9OE0HZ2WfngN3n5Vbzsj0pstMrRbpb3WvW2WkZ1/+rWMmcAvHx8zHXXRWqJJ1j1FqW+u4Pq+avWPvd/2Bhcu0CMI7uK3rhk/eKUcO76/PbV26Ey11GX658Zi3vNu60ry9ddmjt7iE16ce65bw7dfI27p0vtVUdVc7/UJZFLenpfnfdYIl4rauRLR0pj+w6NGWDnNHSEVvf0Dt5G1vd34q/L3Y8f55K70SM+Yclp0+d4tG+Og2/taMyHD3WeVuL/GvpA1ucVm7SdbmTWeWL3zLh35Y3O/JrZ93207++sz7FhYAqJHGncN2O1F/Bxd/8UKJWwCwALwALLiVxJ538s4R6bmjtj5x58mm5ISskVbtjfJv0dDvzd6m4X2/sbdmmMAsuFUkbpg35xCvei24xWVkvVzixngit3xkp0rcUuLfgpJfUp/fLSxAA7VkZYLS9aLSuMCu5ErBSm5/QO0UvZWkU7r7vItPpk60Sfe2NTKpia3Tt622O4RwSdSeRwpdICKd3dJnvkl78Uq4hOvfmqEHBNFbReKG2beHPqfa6paSt5TE3AIStwzV3MICADWUzKvEwyoJdiw4k0FyYmpcRidNiVqvwJw0QT51QtrcTZ/hknOu8YKIt01Yx96aoVec6rDwrSJxwyKfM5eGlKv6PcUvA5aoRt+NgCUv2YFtq2IX36X5iRXZ3uFbSbS0LTt3ymTPRlOibhF9OToqsia2PjxifFSGtcR9uemPuzXD7PgKbhV5ocztJdXwS9GV/J5sDYAL5rjlquYWljR66ynZdPkDcsS9LPt6yShzNwJQBwkvYZsd5VxuAcAc5W/vvFtJTNhpuva4tNWXw6a0HVR7R5lgDK5R0FO+ei6t2K0ZOrPorSK3xQybQ4E675aPwdbqfk9xy1XVLSxYNOzplDZZrb9Bzg2jQXha1xKVd1tXrWkpldtJEoPbuqqXvx56V0CXDLtX8gvd8guXrJeRfSJbwrcP+vc9m8PQgSQ/+hLzkojbugBgIWgIV9olk1fzVPxuBO5mQX0Q2Kg9qgzhaGm52i51uJsFdRIEdvvNd7k+AEBVuJsFdcA57CXKP4eNpaFR57DTqmA9wtdl+P3BOezVssteWbk4nrmM0hp5DpvAXqIWy44V86eBXQtLN7CjF50ZWuLmtNCiRGCj7ghsLIRFG9iA08jA5qIzAABSgMAGACAFCGwAAFKgruewezZ9yr0CACCduOgMdaUXTuzevdu9Amrj/vvv56IzLGqNvOiMwF6i/MDes2ePGwLMz9atWwlsLHqNDGxaOgMAIAWCwD72za+5PgDAoqeNvTTyccWN/vwU4ipxAChFg8V/sIftOmRwLilTLqDSGGDVLnOt1rGS72Q8Expvusy4G5FeBDYAlBN+uIc+PrM1I1Xv/hfjU+wauU4lvpPpwQ7xmnd34003JqPVf2cJQ2ADQDVaVkub67XySnu5kp4NDX+4lipDpcuCcea/wS36WM5+aTXDOnQmefN1YeTmMZgJDfPZ6cPDxiXjXud9XrQ0GlouK/w6bxliSrH+tO6vt1xeV1igjazj3u/aoQfj3lPuc6PyvpNpOTgiMjCV/8S0zqH0P0GNwAaAaoyPynD7Gmn1Xkim9YTsCJf0tngBtqW/LSjhjbWFno8dO65FsvsGpN2VGieyU2a+/dI25k0zNTApXX6amcA70a3DIwFkSrs7+oZl1A89Xc6+bjtNS3bCWz7txtqkf1dBmsYosm5ubIFgufQz+mR4Z3TayDr2fqzIe6r8XBX+TqYPysixNlm9CJ+8QmADWDD62M5qu0RypUJb4tu5JvckrumTMinD0uWP0yd2HTMBbEt8Otwr4eaV7kqN8+l8TbBtcyNaNvZI+7Cr0g0Nj+rsNqHnEnt8dFIG/AnDJdauYZHJk6UDUBVbNze6QHi5WtdIu+stKe49lX5use9EBQdUiwuBDWBB6bOyK+0Sy5UKZ6dMCTEaHv64oNMA7pQh298tozZUwlXVpcbNU+c2GZjUYB+X0cke2agJpmHdOiI9U275dB28qcuLXbc6qORzi30nekB0bEQOlj0iSZ/kBnboCj9bE6Q/uvB5Fiw8tjmQTy+yGpOgdOyFQ78U1DCbfzsZe+JVw3lKBton5eTb3qjYcf4/Mj94IvOdPjgix1z1dmktsrFnUkYzozLZszFU4nThbdh5eb05ocALxhdbt/mKKy2HVfu50e/EbKVtAyL9kQsDxzM1PDBqkMYEtgaBC2Ovi15UMC6ZrkkZ0CNCc/Q0GT0XQpAsILPt2baoo3feeUc6Ozvlueeec0MSrnPIO6ds91smdHUf1RXan+m/HxM6JjHcsFYZ6dkn2cvd++PGaZi6c9BaFdwx2Jo331Y95z1UWdlWq88nh0V22JnqADPftlz18ZYTbfklbDN+n12f6Pgi62bHzVF4Hd1FZ4Xm8Ll534l+zIR7nZtHl1RywJNsQdOkN3zyTjlyeH99mibVwN0isi84D2Re24sMXLVH9LUKvyf6flQtrmlSvZK0td8cW2tVE9sZVYprmlTPSZeq6taw7uvrk6uuukp27dolN998cyKqxmmaFMUkomnShrZ0plUgrteW8PQiA/+ig7WbZG3e0VW52x9caV2HmffF3v6AWPZKUnNkG3t+y56iqOD2CqBC0bBeuXKlGwMgTjLOYefdJuFVh/iX/s+OrJdL7HBf3O0PRW4BMKEee/sDqqMHP7YRggmv6g6oglZ1a5W3BrSPsAaq17jAdiVkWyqOXpJfjVK3AJhQL3b7Ayqk31P09ARQhVtuucUGswa0BjVhDcxN4wK72CX5c+HPK+gIl5ox23Ys3GgDUCUNZA1mP7RTG9bcuYIGa3yVeMEl+RUqcvsDaq81OyFj0uVdLwDMQTi001my5s4VNF4yzmFHLskvq8TtD7bjH86c2PaG7SkF73RF5qgbYXQOjUlbfyuhjTnTgH7yySdtl66wNuypN9fcpRYyuHMCDdCYwI75wXtt3bqLmsLj/f7IezqHvOrvCX2DjgtXicdMj/Ly2hs23dC94W2ojTy47Q0sKdy5gmRIRgkbwKIVbSu8VJdM3LmCZCCwASyYcDvhlXapx50rWCBBYLfffJfrAwDMC3euYAEEgd3Qls4AIO2quXPFnuPmPDaqQ5U4AMxXC3euYOER2ABQTviuE78/cidKVXeu2PFUk6M6BDYAAClAYAMAkALB87DPnp2RM2c+rM/zsNFw/vOwgVqKPg87rXgeNopp5POw6xrYPZs+5V4BAJBOSyKwKWEnByVsLARK2FjslkwJm8BODj+w9+zZ44YA87N161YCG4teIwM7uOiMls4AAEiuILBp6QwAEqzez9wezwQNv2S0Sbbo67BS41Az3NYFAKXkPSpzHqFU78CNU/EyjEuma1IGpryGX4Y6o6/dZFapcaglAhsAygk/zMM1O1p1aEdaRks0+8SxNlntL2z0dVipcagpAhsAqqHBq6G905VU80rgHTLoiq/Tgx25UrmWav3Srfs7mNFx7gEgReaRN1wf0+kG5zMl3OC95kDiKfc5bmyuVD0tg1v0UZ/90mqm69APyftc/2EkZn72s9wjQjsy8u/yXofmHZ127SZZW+m6RZY7bxu5KXLL7vqj83Hjvc/zutyBVGS7jJv174iODy9P8hHYAFAt+0QufTqXBtYJ2RGUvntkZIsXPFv622TMDR9rc0/y8pnQPNGt47Q98SLzsMP7pW3MHz4g7e7tORpCXWI+yJvGdEPr3agCLZLdZ+bhagsmslN5858amJQum2ad9uEl/nSzE0Pyh3mvw7UEkWlH1sslFa1bZLlj1y2s2HyM4PNMN9Ynw/ZAKma7dJr132HGj7rEHh+V4b4dok2/pwWBDWDBrFu3ruouVWx1sCtdaqelTQ1yDXQ73Ctldg5FHvRhAm6bP6DYPHR4eLo40wdlRMpMU0xk/i0be6R9eNQu77xUsm7mvxPH+qS70uUuOh8j/Hmta7zgL7ZdOrulz63j+Oiw9FW8AMlAYANYUC+//HLFXWrYsFsjrdpvAiM4v207DWdT8rT93TJqQ6bMs69j57FI1GrdajKfTunuG5bR8XEZHa7igCEhGhvY3AqQbNHzSQAMV1W9Qx+ZqVXj/bIruv8y/3Yy9uSoBveUDLRPysm3vVEFis3DDh+Rg+4f4PTBkcJz2C0bpUdi3uuXPo2C9/njIp9rp+vrru2BQrF1M4c6a9o1ON3LsLhlLzqfIoptF6Nzm1402CWTA9tqu6510MDANj96bgVIIPO9ENKoo3feeUc6Ozvlueeec0MSyISFXqjlFTB2yhqz3/L2Wd45XL1q3C982IunTMBIf6sb1iojPfske7mdU4wi89DhY21mNt6wLSfaYs7zeuelw+/NTGVln56Pdq/z3teSlR2mhKnjOgZb8z63Vc+513xHXGzdIsutVdw6uVm++GUvNp9iYraLH94a5u3t0rMxfZe1B02T3vDJO+XI4f31a5pUS2/2IoJFVPWTInFNk+pVra395p+NVj3phSX6HW0R2ZeWW1HQUHFNk+o56VJV3RrWfX19ctVVV8muXbvk5ptvTkTVOE2T1lk99zVas7tzjbePc4OqkYimSevb0plXpRR/m0CUmdY/ogofJaHmWrITxa/WtKcv0nULBJItGtYrV650Y4CFYy8209MZ7nWaNKhK3KveiL9NICzu0nw3CvWjR7/2a5hI1S0QSAat6tYqbw1oH2GNPHVsVKZzKL05kuyrxOdzywJqQ8/dceoC83DLLbfYYNaA1qAmrIG5SXZgo/HaB2QsaFABqJ4GsgazH9qpDeta3tWitVYlTwXWSXSdkrJciJXswC5xaT7qpzU7IWPS5TVlCMxBOLTTWbKuwV0ttQpDnY8LWa+LubYkFMS2iz3CCK2TXoHtN7XqI7wTJ+El7BKX5qPmbNvHtgUh7xaWzFE3wugcGpO2/lZCG3OmAf3kk0/aLl1hbdiWthL0gItwIyLaTGdrrmEW++/YXnPixptuTGJaMAuvU5oeTLKENS6wK/2B6HShHx4XnS0ce5V4eFvfG/6OOm3LTRNcdYYlJ+aulrxSbughF2Zc3oMvAtP5D97Y+1079GDcQyvy5l3BnRnaqIjr1c85OCKm1Jx/zUlB06jRdXIP7ch9VGR5dSHilqvkOqPWElLCzr91K9dxGxGQdtG2wkt1yRS9q2W17DJhV/jQDMMEXO7BF2FebaE/j4nej4WmNV3w0AoN0iIPuShGH2LhN5OqF+oeq6QmILJO+tAON8YTWV77oJByD9/gwtSFlpDA9kpv9oeQ13EbEZBm4XbCK+0Sz7YjXuShGaHhZYWnDR5aUeIhF2Gu5GuniTYC4od3LZVarmrWGfMSBHb7zXe5PgBAw7hSba7gElNy9afRUnI40G2b27n2x2uqkuXCggoCu74tnQFASkUeRFHVQzPiSsthVT/kIisTY2JKvv75407ZNqDNmOefTx7PzPH8sr+8lSyXPcfNeeyFlJAqcQBIC+/8r3/3SsUPzTDhGjx4w110Vih/3rYrd2tV55B3Ht1d86MXj3qvc/Pokjk8hSu8vJEHhVS0XKi54OEfZ8/OyJkzH9bv4R9oqLiHfwDzEffwj7Ti4R8oJhEP/wAAAMlFYAMAkAJUiS9RfpU4UEtUiWOxa2SVeF0Du2fTp9wrAADSaUkENiVsAEDa7fyd3Vx0BgAA4gWBTUtnAAAkVxDYtHQGAEByUSUOAEAKENgAAKQAgQ0AQAoQ2AAApACBDQBAChDYAACkAIENAEAKENgAAKRAENi0dAYAQHIFgU1LZwAAJBdV4gAApACBDQBAChDYAACkAIENAEAKENgAAKQAgQ0AQAoQ2AAApACBDQBACgSBTUtnAAAkVxDYtHQGAEByUSUOAEAKENgAAKQAgQ0AQAoQ2AAApACBDQBAChDYAACkAIENAEAKENgAAKRAENi0dAYAQHIFgU1LZwAAJBdV4gAApACBDQBAChDYAACkAIENAEAKENgAAKQAgQ0AQAoQ2AAApACBDQBACgSBTUtnAAAkVxDYtHQGAEByUSUOAEAKENgAAKQAgQ0AQAoQ2AAApACBDQBAChDYAACkAIENAEAKENgAAKRAENi0dAYAQHIFgU1LZwAAJBdV4gAApACBDQBAChDYAACkAIENAEAKENgAAKQAgQ0AQAoQ2AAApACBDQBACgSBTUtnAAAkVxDYtHQGAEByUSUOAEAKENgAAKQAgQ0AQAoQ2AAApACBDQBAChDYAACkAIENAEAKENgAAKRAENi0dAYAQHIFgU1LZwAAJBdV4gAApACBDQBAChDYAACkAIENAEAKENgAAKQAgQ0AQAoQ2AAApACBDQBACgSBTUtnAAAkVxDYtHQGAEByUSUOAEAKENgAAKQAgQ0AQAoQ2AAApACBDQBAChDYAACkAIENAEAKENgAAKRAENi0dAYAQHIFgU1LZwAAJBdV4gAApACBDQBAChDYAACkAIENAEAKENgAAKQAgQ0AQAoQ2AAApACBDQBACgSBTUtnAAAkVxDYtHQGAEByUSUOAEAKENgAAKQAgQ0AQAoQ2AAApACBDQBAChDYAACkAIENAEAKENgAAKRAENi0dAYAQHIFgU1LZwAAJBdV4gAApACBDQBAChDYAACkAIENAEAKENgAAKQAgQ0AQAoQ2AAApACBDQBACgSBTUtnAAAkVxDYtHQGAEByUSUOAEAKENgAAKQAgQ0AQAoQ2AAApACBDQBAChDYAACkAIENAEAKENgAAKRAENi0dAYAQHIFgU1LZwAAJBdV4gAApEDTP7zzrdmZczNy9uyMnDnzofzeUyPyuUcfd6PLe/fdd+Wyyy5zr4p74kt7XR8AAOl232d7XV9xleaj73OPbJdf39wll1xysVx00QrbrVixQpYta5ZlzcvqF9gAACwltQ5sqsQBAEgBAhsAgBQgsAEASAECGwCAFCCwAQBIgSCwaekMAIDkCgKbls4AAEiumtyHDQAACiWq4RQAADB/NJwCAMAiQGADAJACBDYAAClAYAMAkAIENgAAKUBgAwCQAkFg09IZAADJxX3YQMqs+p3vuD4Uc+q3f9b1xXvhhRdcH4q57bbbXF88tmF55bZhFA2nAIsMgV1eJYG9bt069wpRL7/8ckWBzTYsrpJtGEVgA4uMH9hvf/bH7F/kXP6lf7J/Cez5IbDnbyECm4vOAABIAQIbAIAUILABAEgBAhsA0uitp2TTpqfkLfcSMRbZNiKwAVTkrac2yeWXXx50m55yu8HoTvHIA3b8A0fc66XCrXfQLbkNUGtvyVObzHbkoCRAYAMoS8N6/cGNcvTtt+Vt2+2Vax5dnwttn4Z37+vyyNG35bFb3bAlwB7M9IrsDbbP27JXnhciex7eekEOyt3mv4PyAoltBYFNS2cA4h2RoUdFHhm4V65wQ0RulceOPiJy8IVc6UfDev1B2Xj0gNybm3AJeEteOGi2z9HHzFbJufUx73V+zcQmscc4rlbiqQf84eEaiSPyQDC9G67TB8PcPBa5t3SjbszI7dccNz8zt8J2uz0gD2jJO7p94oYHvNJ6/jZO33YMAvvYN7/m+gAg5K035fW1G+W2aAhfcaVcc3xa/sa+OCj9SzKsDS0JHr9Griyy3lfceyAodb+99xp5dMilxvFHZfp2f/jdsv8JrfrVYLFF9eA9j91qwmX9tNznz+PoRjnYv9irib2DoI3mR3fr7XfL8fCB4fHXpWXAbQvdbr0PeDUZxYZbV8i995lhz7shR56X/Xffl7rfKlXiAObvuNm5PmLCaNEHSRFrW+QTrrdAuHTcu1/k9Te9bbT2Ecn4RfJPtMha/WurgUPDlR4wyX7p9eex/lE5HhwoLVJ2O7iDxFtvl7uPh6rFwwePOs5snTf/zvQXG+7TYfu90xRHnt8vd9+evnM2BDaA0mxJOuY8oi15u6DSneW9j8nRjQdlfX5d5OJXbPsoDWtb8+BKfkcf8YK5Wibcc9cPaJdf/b7YaHX48eOPynp7kNJrDldC1eJzdqvcfvd+ef7IEXl+/92SwrwmsAGUc6tkHpFI6VmraR/VOsvQeW2t/h2QR17vLbwYbVFz22d9uArWbKEH3OtQyc8Gkdcb74rbTLnyUfFrzS17QBAZtqhpdfhxuTt0WkCruPOqxX1ata3b9+fca1+R4beaL+r13l55/ZFMKg94CGwAZel5WFt69qtlvUui5UDBScAr5N4DRa4gX8Ts9nnk9Vy1tel65Xa59Yp75b5r/JLi5dI/fU2ZErbZfgMaKrn5PHDEu8AvPGxR3+oUd1rArxbXKu6g5G06/RkecBdDFhsepgdEa9fac+NpxMM/gJTh4R/F8fCP2kjswz/0FEO/yEA0jIsNj9J75Z9okaPlpqsBHv4BAMAc2YvN7lv4sF4oBDYAIB2uuFcOxFZ1Fxkecetj6W7Qh8AGACAFgnPYN3zyTjlyeD/nsIGE889hozjOYc9PYs9hp8hCnMPmojMgZQjs8ioJbJRWSWCjtAUN7A8+OCNf/sozBDYAAHUWDewVK5bbwF6+fFn+VeKzs7OuDwAANIJmsd/5/H4uOgMAIAUIbAAAUiAI7KamJtcHAAAaQbPY73x+f14Jm9AGACAZosHdTEgDAJAMGsl+UPv57PdTwgYAICG8cC4MbWVK2N6I9pvvyhsBAADqq7m5OS+sNZb9flvC1p4/mxi1fwEAQGP44axxHPTrf+avCfNmU8z2Er25mcAGAKBRNJOXLVtmuyCwbecuOvPDWicEAACNoe2G+9XiNpddgdp23/t/fzV77tw5OXfuvJydmZHBJ/a6twEAgHr6zXt78toQX75seS7Ev/+Pk0Fgnzt/TmZmtJuR8+cvmO68/Xvhgtdpe6a5v7n2Tv12TgEAQLygpOxKz95fL4y1ClwDWsN6+XK/8x76EQT2qe++MusFsxfOGtoa3vpaw9kPbD+s/aDWfkVgAwBQnh/WKlztrWHthbYf3F6pOhzWdvr333111gviXIn6/IX8sNbOC+lwCZvABgCgUvGB7QV1rt+FdJPX719fZqf/wXuv2cDW0PVL1X4wa3DHBbUf0uZ/+xcAAOQL56Mf1F5o58I7CGPb70Jbn31th+ePbzr9vdfsPMOB7HWhkJ71x/lBXdgBAIDi/JCOdsH57OAW68Kwtv3eG0SuafvV0IReEd2vO7f16K4u/Rc7ut04fe3Vtcd1N63fHDs82jFdfMd08R3TxXdMF98xXXzHdPFdPabzs9PPWO3W/dKng1K1P8zPYj+XNaebfnTqdVNA9kvKuZK2dvn9/jSm0//MX+X/BQAAOeF81OCN/rX/6V/T+aVsr99VgQf9On2T/H+6EyrJ6h75JAAAAABJRU5ErkJggg==;imageBorder=#FF0000;strokeWidth=4;" vertex="1" parent="1">
          <mxGeometry x="640" y="225" width="492" height="401" as="geometry" />
        </mxCell>
        <mxCell id="0hu4hQmYEvxT2WlQdL5b-4" style="edgeStyle=orthogonalEdgeStyle;rounded=0;orthogonalLoop=1;jettySize=auto;html=1;exitX=1;exitY=0.5;exitDx=0;exitDy=0;entryX=0;entryY=0.5;entryDx=0;entryDy=0;strokeWidth=4;strokeColor=#FF0000;" edge="1" parent="1" source="0hu4hQmYEvxT2WlQdL5b-3" target="0hu4hQmYEvxT2WlQdL5b-2">
          <mxGeometry relative="1" as="geometry" />
        </mxCell>
        <mxCell id="0hu4hQmYEvxT2WlQdL5b-3" value="" style="rounded=0;whiteSpace=wrap;html=1;strokeWidth=4;strokeColor=#FF0000;fillColor=none;" vertex="1" parent="1">
          <mxGeometry x="330" y="360" width="230" height="30" as="geometry" />
        </mxCell>
        <mxCell id="0hu4hQmYEvxT2WlQdL5b-7" value="Editing the Parameters Passed Into a Subcircuit" style="text;strokeColor=none;align=center;fillColor=none;html=1;verticalAlign=middle;whiteSpace=wrap;rounded=0;fontSize=35;" vertex="1" parent="1">
          <mxGeometry x="100" y="140" width="1032" height="65" as="geometry" />
        </mxCell>
      </root>
    </mxGraphModel>
  </diagram>
</mxfile>
